<svg width="730" height="600" viewBox="0 0 730 600" fill="none" xmlns="http://www.w3.org/2000/svg">
<rect width="730" height="600" fill="white"/>
<g clip-path="url(#clip0_1_4305)">
<path d="M426.933 333.17C415.664 333.139 404.705 329.472 395.69 322.716C386.675 315.959 380.085 306.474 376.903 295.673C368.792 268.072 384.672 239.025 412.298 230.922C425.586 227.025 439.879 228.561 452.034 235.192C464.188 241.823 473.208 253.006 477.109 266.281C485.22 293.882 469.341 322.929 441.714 331.032C436.915 332.446 431.937 333.166 426.933 333.17ZM427.073 232.623C422.438 232.628 417.828 233.295 413.382 234.604C387.785 242.109 373.078 269.02 380.591 294.59C383.127 303.186 388.006 310.908 394.683 316.892C401.36 322.876 409.571 326.887 418.399 328.476C427.227 330.065 436.323 329.169 444.671 325.889C453.018 322.609 460.288 317.074 465.667 309.903C471.046 302.732 474.323 294.207 475.131 285.282C475.938 276.357 474.245 267.383 470.241 259.365C466.236 251.346 460.078 244.598 452.454 239.875C444.831 235.153 436.043 232.642 427.073 232.623Z" fill="#A03885"/>
<path d="M426.861 372.954C403.723 372.913 381.45 364.172 364.472 348.468C347.493 332.764 337.056 311.25 335.235 288.206C331.247 237.655 369.166 193.277 419.765 189.292C444.103 187.375 468.206 195.196 486.773 211.033C505.339 226.87 516.849 249.428 518.769 273.743C522.76 324.294 484.838 368.672 434.239 372.656C431.775 372.855 429.315 372.954 426.861 372.954ZM427.072 192.843C424.753 192.843 422.426 192.932 420.074 193.116C371.583 196.937 335.247 239.457 339.066 287.903C339.976 299.441 343.152 310.687 348.412 320.999C353.673 331.311 360.915 340.486 369.725 348.002C378.535 355.518 388.741 361.226 399.759 364.801C410.777 368.376 422.392 369.748 433.941 368.838C482.433 365.017 518.769 322.498 514.95 274.052C511.313 227.955 472.593 192.843 427.072 192.843Z" fill="#A03885"/>
<path d="M65.9043 303.782C61.6044 303.782 57.7559 302.806 54.3588 300.856C50.9966 298.931 48.2289 296.119 46.3583 292.729C44.4157 289.271 43.4434 285.333 43.4414 280.915C43.4414 276.581 44.4008 272.685 46.3196 269.225C48.1818 265.826 50.9553 263.011 54.3291 261.099C57.7499 259.138 61.6083 258.159 65.9043 258.161C69.4661 258.109 72.9908 258.89 76.1966 260.441C79.1962 261.905 81.7711 264.111 83.6763 266.849C85.6216 269.674 86.8261 272.94 87.1795 276.35H81.4797C81.0843 273.883 80.1203 271.542 78.6641 269.511C77.2599 267.587 75.3996 266.041 73.25 265.012C70.9748 263.929 68.4808 263.384 65.9608 263.418C62.9152 263.365 59.9113 264.131 57.2638 265.636C54.7355 267.1 52.6824 269.259 51.3497 271.857C49.9607 274.523 49.2662 277.565 49.2662 280.983C49.2662 284.401 49.9607 287.433 51.3497 290.079C52.6943 292.669 54.7445 294.825 57.2638 296.3C59.9048 297.824 62.9113 298.601 65.9608 298.548C68.5013 298.587 71.0166 298.042 73.3125 296.954C75.4567 295.931 77.3077 294.383 78.6938 292.455C80.1333 290.418 81.0863 288.078 81.4797 285.616H87.1736C86.7777 289.027 85.5514 292.289 83.6019 295.117C81.7057 297.849 79.1451 300.054 76.1609 301.525C73.121 303.039 69.7021 303.792 65.9043 303.782Z" fill="black"/>
<path d="M95.6254 303.668C94.7651 303.681 93.9056 303.608 93.0598 303.451C92.3945 303.318 91.7444 303.119 91.1191 302.856V297.355H91.1816C91.7886 297.58 92.4184 297.737 93.0598 297.825C93.7461 297.894 94.4357 297.925 95.1254 297.917C95.8346 297.927 96.5346 297.755 97.1582 297.418C97.8069 297.045 98.3633 296.532 98.7863 295.916C99.2938 295.183 99.6453 294.354 99.8191 293.481C100.528 290.903 101.024 287.319 101.307 282.728C101.591 278.137 101.737 272.636 101.745 266.225V259.088H133.232V302.856H127.613V264.53H107.201V268.47C107.201 274.845 106.982 280.554 106.546 285.598C106.109 290.641 105.393 294.521 104.397 297.239C103.563 299.364 102.437 300.969 101.019 302.053C99.5999 303.138 97.8021 303.676 95.6254 303.668Z" fill="black"/>
<path d="M190.713 280.601L175.569 259.096H182.016L195.657 278.35H203.482V259.096H209.113V278.35H216.935L230.576 259.096H236.957L221.751 280.601L237.458 302.856H230.639L216.998 283.602H209.113V302.856H203.482V283.602H195.535L181.894 302.856H175.135L190.713 280.601Z" fill="black"/>
<path d="M246.67 259.096H276.565V264.098H252.099V277.479H263.677C268.515 277.479 272.321 278.615 275.095 280.887C277.869 283.159 279.257 286.252 279.261 290.167C279.261 294.087 277.872 297.181 275.095 299.451C272.317 301.721 268.511 302.857 263.677 302.859H246.67V259.096ZM263.314 297.979C266.528 297.979 269.052 297.285 270.886 295.897C272.719 294.51 273.637 292.603 273.639 290.176C273.639 287.762 272.721 285.856 270.886 284.458C269.05 283.06 266.526 282.367 263.314 282.377H252.099V298.003L263.314 297.979Z" fill="black"/>
<path d="M301.97 259.096H309.471L327.306 302.856H321.174L316.48 291.042H294.836L290.142 302.856H284.189L301.97 259.096ZM314.671 286.477L305.661 264.035H305.602L296.592 286.477H314.671Z" fill="black"/>
<path d="M366.84 259.096H381.106C386.279 259.096 390.335 260.286 393.276 262.665C396.217 265.043 397.687 268.314 397.687 272.477C397.687 276.601 396.217 279.862 393.276 282.261C390.335 284.659 386.279 285.858 381.106 285.856H372.474V302.859H366.843L366.84 259.096ZM381.168 281.163C384.541 281.163 387.2 280.392 389.145 278.85C391.09 277.308 392.06 275.203 392.056 272.537C392.056 269.869 391.096 267.764 389.178 266.224C387.259 264.684 384.589 263.912 381.168 263.91H372.471V281.157L381.168 281.163Z" fill="black"/>
<path d="M427.411 303.781C423.113 303.781 419.233 302.789 415.771 300.807C412.353 298.872 409.53 296.04 407.606 292.618C405.655 289.041 404.633 285.032 404.633 280.958C404.633 276.885 405.655 272.876 407.606 269.299C409.53 265.877 412.353 263.045 415.771 261.109C419.235 259.127 423.115 258.136 427.411 258.136C431.707 258.136 435.586 259.127 439.049 261.109C442.462 263.041 445.276 265.874 447.183 269.299C449.114 272.882 450.124 276.889 450.124 280.958C450.124 285.028 449.114 289.034 447.183 292.618C445.276 296.042 442.462 298.876 439.049 300.807C435.588 302.799 431.709 303.791 427.411 303.781ZM427.411 298.529C430.468 298.57 433.476 297.771 436.108 296.219C438.671 294.701 440.786 292.533 442.24 289.936C443.719 287.176 444.493 284.094 444.493 280.964C444.493 277.834 443.719 274.752 442.24 271.993C440.786 269.395 438.671 267.227 436.108 265.71C434.162 264.546 432.001 263.786 429.754 263.472C427.508 263.159 425.221 263.299 423.03 263.885C420.839 264.471 418.788 265.491 416.998 266.884C415.209 268.276 413.718 270.014 412.613 271.993C411.152 274.758 410.389 277.838 410.389 280.964C410.389 284.091 411.152 287.17 412.613 289.936C414.068 292.574 416.214 294.767 418.82 296.281C421.427 297.795 424.397 298.572 427.411 298.529Z" fill="black"/>
<path d="M476.343 303.782C472.711 303.782 469.437 303.125 466.52 301.813C463.692 300.576 461.242 298.613 459.419 296.125C457.603 293.647 456.549 290.698 456.258 287.278H461.764C462.264 290.864 463.776 293.688 466.3 295.75C468.824 297.812 472.107 298.847 476.149 298.857C479.86 298.857 482.81 298.128 485.001 296.669C487.191 295.21 488.283 293.227 488.275 290.722C488.295 289.34 487.879 287.987 487.084 286.856C486.225 285.679 485.04 284.778 483.676 284.263C482.036 283.63 480.288 283.321 478.53 283.353H473.47V278.539H478.53C480.127 278.564 481.709 278.233 483.161 277.569C484.445 277.002 485.549 276.094 486.352 274.944C487.107 273.828 487.501 272.508 487.48 271.161C487.497 269.632 486.989 268.142 486.04 266.942C484.981 265.642 483.584 264.659 482.004 264.099C480.111 263.405 478.106 263.066 476.09 263.1C472.377 263.1 469.332 264.047 466.955 265.943C464.578 267.838 463.16 270.453 462.702 273.787H457.192C457.613 270.455 458.688 267.621 460.416 265.285C462.143 262.958 464.452 261.125 467.113 259.972C470.007 258.731 473.131 258.114 476.28 258.161C479.219 258.118 482.139 258.638 484.882 259.692C487.447 260.713 489.46 262.161 490.921 264.036C492.387 265.93 493.16 268.268 493.112 270.662C493.152 272.822 492.494 274.939 491.233 276.695C489.895 278.493 488.069 279.87 485.971 280.665C488.267 281.453 490.287 282.885 491.79 284.789C493.243 286.643 494.017 288.938 493.981 291.293C494.018 293.68 493.234 296.008 491.76 297.888C490.278 299.785 488.202 301.243 485.534 302.262C482.865 303.281 479.801 303.788 476.343 303.782Z" fill="black"/>
<path d="M503.871 259.096H509.505V297.604H528.653V259.096H534.346V297.604H553.494V259.096H559.125V302.856H503.871V259.096Z" fill="black"/>
<path d="M610.596 259.096H616.227V278.35H624.174L639.056 259.096H645.437L628.856 280.601L646 302.856H638.993L624.112 283.602H616.227V302.856H610.596V259.096Z" fill="black"/>
<path d="M664.852 303.781C662.787 303.808 660.75 303.302 658.938 302.312C657.168 301.345 655.709 299.895 654.732 298.131C653.682 296.206 653.153 294.04 653.2 291.848V290.034H658.643V291.973C658.643 294.056 659.217 295.765 660.364 297.099C660.9 297.745 661.575 298.26 662.339 298.607C663.103 298.953 663.936 299.122 664.775 299.101C666.317 299.101 667.547 298.694 668.466 297.882C668.922 297.471 669.283 296.966 669.521 296.4C669.759 295.835 669.869 295.224 669.844 294.611C669.844 293.112 669.343 291.507 668.341 289.796L648.881 259.103H655.45L671.281 285.297C671.705 285.978 672.082 286.688 672.409 287.42C672.738 288.158 672.97 288.936 673.097 289.734L683.297 259.106H688.991L677.228 292.928C675.974 296.551 674.357 299.27 672.377 301.084C670.396 302.898 667.888 303.797 664.852 303.781Z" fill="black"/>
<path d="M41 361.873H45.6313C46.6301 357.792 47.3412 353.645 47.7594 349.464C48.1741 345.274 48.3825 340.157 48.3844 334.115V323.365H80.4849V361.873H86.1162V377H80.7349V367.119H46.4438V376.994H41V361.873ZM74.9309 361.873V328.489H53.9533V334.112C53.9902 339.175 53.7607 344.237 53.2657 349.277C52.8101 353.52 52.0783 357.728 51.0751 361.876L74.9309 361.873Z" fill="black"/>
<path d="M128.35 328.738H111.385V323.365H150.876V328.738H133.982V367.119H128.35V328.738Z" fill="black"/>
<path d="M159.948 323.365H186.667V328.364H165.517V342.735H180.724V347.734H165.517V362.123H189.108V367.119H159.939L159.948 323.365Z" fill="black"/>
<path d="M198.992 323.367H204.624V358.812L230.655 323.367H236.661V367.12H231.03V331.437L204.874 367.12H198.992V323.367ZM217.827 318.989C215.729 319.033 213.65 318.583 211.758 317.675C210.07 316.865 208.653 315.585 207.677 313.988C206.705 312.34 206.211 310.453 206.252 308.54V308.041H210.567V308.478C210.567 310.48 211.225 312.074 212.541 313.259C213.856 314.445 215.618 315.039 217.827 315.043C220.079 315.043 221.865 314.449 223.184 313.259C224.504 312.07 225.161 310.476 225.155 308.478V308.041H229.405V308.54C229.44 310.451 228.943 312.334 227.967 313.979C226.995 315.574 225.582 316.855 223.899 317.666C222.007 318.578 219.927 319.031 217.827 318.989Z" fill="black"/>
<path d="M276.98 323.365H286.365L301.321 360.746L316.203 323.365H325.403V367.119H319.897V328.052L304.45 367.119H297.94L282.487 328.046V367.119H276.98V323.365Z" fill="black"/>
<path d="M351.69 323.365H359.2L377.034 367.119H370.903L366.209 355.302H344.562L339.865 367.119H333.912L351.69 323.365ZM364.393 350.746L355.381 328.301H355.306L346.297 350.746H364.393Z" fill="black"/>
<path d="M385.541 323.365H414.451V328.614H391.172V367.119H385.541V323.365Z" fill="black"/>
<path d="M423.648 323.365H429.28V342.619H454.436V323.365H460.077V367.119H454.445V347.868H429.289V367.119H423.657L423.648 323.365Z" fill="black"/>
<path d="M494.105 368.061C489.807 368.061 485.928 367.07 482.468 365.088C479.048 363.154 476.223 360.322 474.3 356.899C472.351 353.321 471.33 349.313 471.33 345.241C471.33 341.168 472.351 337.16 474.3 333.583C476.225 330.16 479.049 327.329 482.468 325.393C485.928 323.411 489.807 322.42 494.105 322.42C498.403 322.42 502.282 323.411 505.743 325.393C509.156 327.325 511.97 330.158 513.877 333.583C515.808 337.166 516.818 341.171 516.818 345.241C516.818 349.31 515.808 353.315 513.877 356.899C511.972 360.324 509.157 363.158 505.743 365.088C502.284 367.07 498.405 368.061 494.105 368.061ZM494.105 362.81C497.162 362.852 500.171 362.052 502.802 360.497C505.366 358.981 507.482 356.812 508.934 354.213C510.413 351.455 511.187 348.373 511.187 345.244C511.187 342.114 510.413 339.033 508.934 336.274C507.48 333.676 505.365 331.508 502.802 329.99C500.856 328.827 498.695 328.067 496.448 327.753C494.202 327.44 491.915 327.58 489.724 328.166C487.533 328.752 485.482 329.772 483.692 331.164C481.903 332.557 480.411 334.294 479.307 336.274C477.848 339.039 477.086 342.118 477.086 345.244C477.086 348.369 477.848 351.448 479.307 354.213C480.762 356.852 482.908 359.045 485.514 360.559C488.121 362.073 491.09 362.851 494.105 362.81Z" fill="black"/>
<path d="M525.765 367.936C524.906 367.949 524.047 367.875 523.202 367.716C522.537 367.584 521.887 367.385 521.262 367.122V361.62H521.324C521.931 361.845 522.561 362.002 523.202 362.087C523.888 362.157 524.576 362.189 525.265 362.182C525.975 362.192 526.676 362.02 527.301 361.683C527.948 361.31 528.503 360.797 528.926 360.181C529.435 359.448 529.786 358.618 529.959 357.743C530.667 355.166 531.163 351.582 531.447 346.99C531.731 342.399 531.877 336.898 531.884 330.487V323.35H563.357V367.119H557.726V328.804H537.343V332.741C537.343 339.116 537.124 344.826 536.685 349.869C536.247 354.912 535.528 358.788 534.528 361.496C533.69 363.623 532.564 365.227 531.149 366.31C529.735 367.392 527.94 367.934 525.765 367.936Z" fill="black"/>
<path d="M578.391 323.365H584.022V367.119H578.391V323.365Z" fill="black"/>
<path d="M606.11 348.995C602.935 348.12 600.484 346.61 598.758 344.463C597.032 342.316 596.165 339.679 596.159 336.553C596.159 332.471 597.641 329.252 600.603 326.895C603.566 324.538 607.633 323.361 612.806 323.365H627.944V367.119H622.313V349.872H612.425C612.341 349.872 612.257 349.862 612.175 349.842C612.114 349.825 612.051 349.814 611.988 349.809L599.163 367.119H592.594L606.11 348.995ZM622.316 345.182V328.301H612.616C609.243 328.301 606.594 329.052 604.669 330.552C602.744 332.053 601.785 334.095 601.791 336.678C601.791 339.305 602.75 341.378 604.669 342.899C606.588 344.419 609.237 345.18 612.616 345.182H622.316Z" fill="black"/>
</g>
<defs>
<clipPath id="clip0_1_4305">
<rect width="648" height="188" fill="white" transform="translate(41 189)"/>
</clipPath>
</defs>
</svg>
