<svg width="687" height="198" viewBox="0 0 687 198" fill="none" xmlns="http://www.w3.org/2000/svg">
<g clip-path="url(#clip0_102_7494)">
<path d="M409.162 151.831C397.214 151.798 385.596 147.937 376.038 140.82C366.48 133.704 359.494 123.715 356.121 112.339C347.522 83.2699 364.356 52.6787 393.646 44.1446C407.734 40.0403 422.887 41.6579 435.773 48.6417C448.659 55.6255 458.221 67.4034 462.358 81.3845C470.957 110.454 454.122 141.045 424.832 149.579C419.744 151.068 414.467 151.827 409.162 151.831ZM409.31 45.936C404.396 45.9408 399.508 46.6431 394.795 48.0218C367.657 55.9264 352.066 84.2689 360.03 111.199C362.719 120.252 367.892 128.385 374.97 134.687C382.049 140.99 390.755 145.214 400.114 146.887C409.473 148.561 419.117 147.618 427.967 144.163C436.817 140.709 444.524 134.879 450.227 127.327C455.93 119.774 459.404 110.796 460.26 101.396C461.116 91.9961 459.321 82.5451 455.076 74.0998C450.83 65.6544 444.301 58.5476 436.219 53.5739C428.137 48.6002 418.82 45.9556 409.31 45.936Z" fill="#A03885"/>
<path d="M409.084 193.731C384.554 193.688 360.94 184.481 342.94 167.942C324.94 151.403 313.874 128.745 311.944 104.475C307.716 51.235 347.917 4.49643 401.561 0.299852C427.364 -1.71909 452.918 6.51723 472.602 23.197C492.286 39.8768 504.488 63.6338 506.523 89.2422C510.755 142.482 470.55 189.221 416.906 193.417C414.294 193.626 411.686 193.731 409.084 193.731ZM409.308 4.03919C406.85 4.03919 404.382 4.13314 401.889 4.32731C350.479 8.35164 311.957 53.1328 316.005 104.156C316.97 116.308 320.337 128.152 325.914 139.012C331.491 149.873 339.169 159.536 348.51 167.452C357.85 175.367 368.67 181.379 380.351 185.144C392.032 188.91 404.347 190.354 416.591 189.396C468.001 185.372 506.523 140.591 502.475 89.5679C498.619 41.0191 457.568 4.03919 409.308 4.03919Z" fill="#A03885"/>
<path d="M26.4027 120.879C21.844 120.879 17.7639 119.852 14.1624 117.798C10.5978 115.77 7.66347 112.809 5.68031 109.238C3.6208 105.597 2.58999 101.45 2.58789 96.796C2.58789 92.2319 3.60502 88.1283 5.63929 84.485C7.61358 80.9044 10.554 77.9405 14.1308 75.9258C17.7576 73.861 21.8482 72.8296 26.4027 72.8317C30.1789 72.777 33.9157 73.5996 37.3145 75.2337C40.4946 76.7752 43.2244 79.0985 45.2444 81.9827C47.3067 84.9569 48.5837 88.3974 48.9584 91.9887H42.9156C42.4963 89.3906 41.4744 86.9247 39.9304 84.7856C38.4418 82.759 36.4695 81.1309 34.1905 80.0473C31.7784 78.9068 29.1342 78.3324 26.4626 78.3686C23.2337 78.3128 20.049 79.1197 17.2422 80.7049C14.5618 82.2461 12.3851 84.5206 10.9721 87.2566C9.49955 90.0648 8.76326 93.2685 8.76326 96.868C8.76326 100.467 9.49955 103.661 10.9721 106.448C12.3976 109.175 14.5713 111.447 17.2422 113C20.0422 114.605 23.2296 115.423 26.4626 115.367C29.156 115.408 31.8227 114.834 34.2568 113.689C36.53 112.611 38.4924 110.981 39.962 108.95C41.4881 106.805 42.4985 104.341 42.9156 101.747H48.9521C48.5324 105.34 47.2323 108.775 45.1655 111.753C43.1552 114.631 40.4404 116.953 37.2766 118.502C34.0538 120.097 30.4291 120.89 26.4027 120.879Z" fill="black"/>
<path d="M57.9122 120.758C57.0001 120.772 56.089 120.695 55.1922 120.53C54.4869 120.39 53.7976 120.18 53.1348 119.903V114.109H53.201C53.8445 114.346 54.5122 114.512 55.1922 114.604C55.9198 114.677 56.6509 114.709 57.3821 114.701C58.1341 114.712 58.8762 114.531 59.5373 114.175C60.225 113.783 60.815 113.243 61.2634 112.594C61.8014 111.822 62.1741 110.949 62.3584 110.029C63.1094 107.315 63.6353 103.54 63.9361 98.7042C64.237 93.8688 64.3916 88.075 64.4 81.3229V73.8066H97.7824V119.903H91.8247V79.5378H70.1841V83.6874C70.1841 90.4019 69.9527 96.4149 69.4899 101.726C69.0271 107.038 68.2676 111.125 67.2116 113.987C66.328 116.225 65.1342 117.916 63.6301 119.058C62.1259 120.2 60.22 120.767 57.9122 120.758Z" fill="black"/>
<path d="M158.723 96.4664L142.668 73.8174H149.503L163.964 94.0956H172.26V73.8174H178.231V94.0956H186.523L200.985 73.8174H207.751L191.629 96.4664L208.281 119.905H201.051L186.59 99.6263H178.231V119.905H172.26V99.6263H163.835L149.373 119.905H142.207L158.723 96.4664Z" fill="black"/>
<path d="M218.047 73.8174H249.741V79.085H223.803V93.178H236.078C241.206 93.178 245.241 94.3743 248.182 96.767C251.123 99.1597 252.596 102.418 252.6 106.541C252.6 110.669 251.127 113.928 248.182 116.319C245.237 118.709 241.202 119.906 236.078 119.908H218.047V73.8174ZM235.693 114.768C239.101 114.768 241.776 114.038 243.72 112.576C245.664 111.115 246.637 109.106 246.639 106.551C246.639 104.008 245.666 102 243.72 100.528C241.774 99.0563 239.098 98.3256 235.693 98.336H223.803V114.793L235.693 114.768Z" fill="black"/>
<path d="M276.677 73.8174H284.629L303.537 119.905H297.037L292.061 107.462H269.114L264.137 119.905H257.826L276.677 73.8174ZM290.142 102.655L280.59 79.0193H280.527L270.975 102.655H290.142Z" fill="black"/>
<path d="M345.451 73.8174H360.576C366.06 73.8174 370.361 75.0701 373.479 77.5755C376.596 80.0809 378.155 83.5259 378.155 87.9104C378.155 92.2531 376.596 95.6876 373.479 98.2139C370.361 100.74 366.06 102.002 360.576 102H351.425V119.908H345.454L345.451 73.8174ZM360.642 97.0583C364.218 97.0583 367.037 96.2461 369.099 94.6217C371.16 92.9974 372.189 90.7811 372.185 87.973C372.185 85.1627 371.168 82.9465 369.133 81.3242C367.099 79.702 364.269 78.8898 360.642 78.8877H351.421V97.052L360.642 97.0583Z" fill="black"/>
<path d="M409.667 120.877C405.11 120.877 400.997 119.833 397.326 117.746C393.702 115.707 390.709 112.725 388.67 109.121C386.601 105.353 385.518 101.131 385.518 96.841C385.518 92.5506 386.601 88.3287 388.67 84.5614C390.709 80.9572 393.702 77.9748 397.326 75.9365C400.999 73.8486 405.112 72.8047 409.667 72.8047C414.221 72.8047 418.334 73.8486 422.005 75.9365C425.623 77.9707 428.607 80.9548 430.629 84.5614C432.676 88.3357 433.747 92.5549 433.747 96.841C433.747 101.127 432.676 105.346 430.629 109.121C428.607 112.727 425.623 115.711 422.005 117.746C418.336 119.844 414.224 120.888 409.667 120.877ZM409.667 115.347C412.907 115.39 416.097 114.548 418.887 112.913C421.604 111.315 423.847 109.032 425.388 106.296C426.956 103.39 427.776 100.144 427.776 96.8473C427.776 93.5506 426.956 90.305 425.388 87.3987C423.847 84.6627 421.604 82.3797 418.887 80.7813C416.824 79.5563 414.533 78.755 412.151 78.425C409.769 78.095 407.345 78.2429 405.022 78.8601C402.699 79.4772 400.524 80.551 398.627 82.0177C396.73 83.4844 395.149 85.3143 393.978 87.3987C392.43 90.3112 391.62 93.5544 391.62 96.8473C391.62 100.14 392.43 103.383 393.978 106.296C395.52 109.074 397.795 111.384 400.559 112.979C403.322 114.573 406.471 115.391 409.667 115.347Z" fill="black"/>
<path d="M461.544 120.879C457.694 120.879 454.223 120.188 451.13 118.806C448.132 117.503 445.535 115.436 443.601 112.815C441.676 110.205 440.559 107.1 440.25 103.498H446.088C446.618 107.275 448.221 110.249 450.897 112.42C453.573 114.592 457.053 115.683 461.338 115.693C465.272 115.693 468.4 114.925 470.723 113.388C473.045 111.851 474.202 109.764 474.194 107.125C474.216 105.669 473.774 104.245 472.932 103.053C472.02 101.814 470.765 100.865 469.319 100.322C467.58 99.656 465.727 99.3305 463.863 99.364H458.498V94.2937H463.863C465.556 94.3208 467.233 93.972 468.773 93.2727C470.134 92.6754 471.304 91.7189 472.156 90.5074C472.956 89.3324 473.373 87.9419 473.351 86.5238C473.369 84.9127 472.83 83.3443 471.824 82.0798C470.702 80.7112 469.221 79.6754 467.545 79.0858C465.538 78.3548 463.413 77.9981 461.275 78.0335C457.339 78.0335 454.111 79.0315 451.591 81.0275C449.071 83.0235 447.568 85.7774 447.082 89.2891H441.241C441.687 85.7795 442.826 82.7949 444.658 80.3354C446.489 77.8839 448.938 75.9538 451.758 74.7389C454.827 73.4327 458.139 72.7829 461.477 72.8317C464.593 72.7866 467.688 73.3341 470.597 74.4445C473.317 75.5198 475.451 77.0449 476.999 79.02C478.553 81.0146 479.373 83.4768 479.322 85.9976C479.365 88.2733 478.667 90.502 477.331 92.352C475.911 94.2455 473.975 95.6963 471.752 96.5329C474.186 97.3626 476.328 98.8707 477.921 100.877C479.462 102.829 480.281 105.246 480.243 107.726C480.283 110.24 479.452 112.692 477.889 114.672C476.318 116.67 474.117 118.206 471.288 119.279C468.458 120.352 465.21 120.886 461.544 120.879Z" fill="black"/>
<path d="M490.729 73.8174H496.702V114.374H517.001V73.8174H523.038V114.374H543.338V73.8174H549.308V119.905H490.729V73.8174Z" fill="black"/>
<path d="M603.877 73.8174H609.847V94.0956H618.272L634.05 73.8174H640.816L623.236 96.4664L641.412 119.905H633.984L618.206 99.6263H609.847V119.905H603.877V73.8174Z" fill="black"/>
<path d="M661.399 120.877C659.21 120.906 657.05 120.373 655.129 119.33C653.253 118.311 651.706 116.784 650.671 114.927C649.556 112.899 648.996 110.618 649.046 108.309V106.399H654.817V108.441C654.817 110.635 655.425 112.435 656.641 113.84C657.209 114.52 657.925 115.062 658.735 115.428C659.545 115.793 660.428 115.971 661.317 115.948C662.952 115.948 664.256 115.52 665.23 114.664C665.714 114.232 666.097 113.699 666.349 113.103C666.602 112.508 666.719 111.864 666.691 111.219C666.691 109.64 666.16 107.95 665.098 106.148L644.467 73.8223H651.431L668.215 101.41C668.665 102.127 669.065 102.875 669.411 103.646C669.76 104.423 670.005 105.242 670.14 106.083L680.954 73.8254H686.991L674.52 109.446C673.191 113.263 671.476 116.126 669.377 118.037C667.277 119.947 664.618 120.894 661.399 120.877Z" fill="black"/>
<path d="M0 182.061H4.91C5.96897 177.763 6.72289 173.396 7.16621 168.992C7.60588 164.579 7.82677 159.19 7.82887 152.826V141.505H41.8613V182.061H47.8315V197.993H42.1263V187.586H5.77146V197.986H0V182.061ZM35.973 182.061V146.901H13.7329V152.823C13.772 158.156 13.5287 163.487 13.0039 168.795C12.5209 173.264 11.7451 177.696 10.6815 182.064L35.973 182.061Z" fill="black"/>
<path d="M92.6076 147.164H74.6211V141.505H116.489V147.164H98.5779V187.586H92.6076V147.164Z" fill="black"/>
<path d="M126.109 141.505H154.436V146.769H132.013V161.905H148.135V167.17H132.013V182.324H157.024V187.586H126.1L126.109 141.505Z" fill="black"/>
<path d="M167.502 141.505H173.472V178.836L201.07 141.505H207.438V187.586H201.468V150.005L173.737 187.586H167.502V141.505ZM187.47 136.895C185.246 136.942 183.041 136.468 181.036 135.511C179.246 134.658 177.744 133.31 176.71 131.628C175.679 129.892 175.155 127.905 175.198 125.89V125.364H179.774V125.825C179.774 127.933 180.471 129.612 181.866 130.861C183.261 132.109 185.129 132.735 187.47 132.74C189.858 132.74 191.751 132.113 193.15 130.861C194.549 129.608 195.245 127.929 195.239 125.825V125.364H199.745V125.89C199.783 127.903 199.255 129.886 198.221 131.618C197.19 133.298 195.692 134.647 193.907 135.502C191.902 136.462 189.696 136.939 187.47 136.895Z" fill="black"/>
<path d="M250.182 141.505H260.131L275.988 180.874L291.765 141.505H301.519V187.586H295.681V146.441L279.304 187.586H272.403L256.019 146.434V187.586H250.182V141.505Z" fill="black"/>
<path d="M329.389 141.505H337.35L356.258 187.586H349.758L344.782 175.14H321.832L316.852 187.586H310.541L329.389 141.505ZM342.857 170.342L333.302 146.704H333.223L323.671 170.342H342.857Z" fill="black"/>
<path d="M365.277 141.505H395.927V147.032H371.248V187.586H365.277V141.505Z" fill="black"/>
<path d="M405.678 141.505H411.648V161.783H438.319V141.505H444.298V187.586H438.328V167.311H411.657V187.586H405.687L405.678 141.505Z" fill="black"/>
<path d="M480.376 188.577C475.82 188.577 471.707 187.533 468.038 185.446C464.413 183.409 461.418 180.426 459.379 176.821C457.313 173.053 456.23 168.832 456.23 164.543C456.23 160.253 457.313 156.032 459.379 152.264C461.42 148.66 464.414 145.678 468.038 143.64C471.707 141.552 475.82 140.508 480.376 140.508C484.933 140.508 489.046 141.552 492.715 143.64C496.333 145.674 499.317 148.658 501.339 152.264C503.385 156.038 504.456 160.257 504.456 164.543C504.456 168.828 503.385 173.047 501.339 176.821C499.319 180.429 496.334 183.413 492.715 185.446C489.048 187.533 484.935 188.577 480.376 188.577ZM480.376 183.047C483.617 183.091 486.807 182.248 489.597 180.61C492.315 179.013 494.558 176.73 496.097 173.993C497.665 171.087 498.486 167.842 498.486 164.546C498.486 161.25 497.665 158.004 496.097 155.099C494.556 152.363 492.314 150.08 489.597 148.481C487.533 147.256 485.242 146.455 482.86 146.125C480.479 145.795 478.054 145.943 475.731 146.56C473.408 147.177 471.234 148.251 469.337 149.718C467.44 151.184 465.858 153.014 464.687 155.099C463.141 158.011 462.333 161.254 462.333 164.546C462.333 167.838 463.141 171.08 464.687 173.993C466.23 176.771 468.505 179.081 471.268 180.676C474.032 182.271 477.18 183.09 480.376 183.047Z" fill="black"/>
<path d="M513.94 188.446C513.029 188.459 512.119 188.381 511.223 188.214C510.518 188.075 509.829 187.865 509.166 187.588V181.794H509.232C509.876 182.031 510.543 182.196 511.223 182.286C511.95 182.36 512.68 182.393 513.41 182.386C514.163 182.396 514.906 182.215 515.569 181.86C516.255 181.467 516.843 180.927 517.292 180.278C517.831 179.506 518.204 178.632 518.387 177.71C519.138 174.996 519.663 171.221 519.964 166.386C520.265 161.55 520.42 155.757 520.428 149.005V141.488H553.795V187.585H547.824V147.232H526.215V151.378C526.215 158.093 525.983 164.106 525.518 169.417C525.053 174.729 524.29 178.811 523.23 181.663C522.342 183.903 521.149 185.593 519.649 186.733C518.149 187.873 516.246 188.444 513.94 188.446Z" fill="black"/>
<path d="M569.734 141.505H575.705V187.586H569.734V141.505Z" fill="black"/>
<path d="M599.122 168.498C595.756 167.577 593.158 165.986 591.328 163.725C589.498 161.464 588.58 158.687 588.573 155.394C588.573 151.095 590.144 147.705 593.285 145.222C596.425 142.74 600.738 141.501 606.222 141.505H622.271V187.586H616.301V169.422H605.818C605.729 169.422 605.64 169.411 605.553 169.39C605.488 169.372 605.422 169.36 605.354 169.356L591.757 187.586H584.793L599.122 168.498ZM616.304 164.483V146.704H606.02C602.444 146.704 599.636 147.494 597.595 149.074C595.554 150.655 594.537 152.805 594.544 155.526C594.544 158.292 595.561 160.476 597.595 162.078C599.629 163.679 602.438 164.481 606.02 164.483H616.304Z" fill="black"/>
</g>
<defs>
<clipPath id="clip0_102_7494">
<rect width="687" height="198" fill="white"/>
</clipPath>
</defs>
</svg>
