<svg width="109" height="34" viewBox="0 0 109 34" fill="none" xmlns="http://www.w3.org/2000/svg">
<g clip-path="url(#clip0_1_9299)">
<path d="M39.6393 6.03933H41.5957C43.1845 6.03933 44.2575 6.85935 44.2575 8.42537C44.2575 9.99138 43.1945 10.8328 41.5117 10.8328H38.0078V3.34863H43.5621V4.70395H39.6379V6.03933H39.6393ZM41.3749 7.33201H39.6393V9.48741H41.3863C42.2384 9.48741 42.6601 9.13008 42.6601 8.40402C42.6601 7.67795 42.2284 7.33201 41.3763 7.33201H41.3749Z" fill="white"/>
<path d="M45.9716 8.51915V10.8312H44.4883V5.40705H45.9716V7.46707H47.0446C47.2654 6.0904 48.2329 5.24902 49.6636 5.24902C50.4743 5.24902 51.1056 5.51097 51.5786 6.02634C52.0517 6.55166 52.284 7.24498 52.284 8.11768C52.284 8.99038 52.0531 9.69366 51.5786 10.209C51.1056 10.7343 50.453 10.9977 49.6422 10.9977C48.1275 10.9977 47.1486 10.041 47.0118 8.51772H45.9702L45.9716 8.51915ZM49.6222 6.3851C48.9069 6.3851 48.4866 7.02574 48.4866 8.1191C48.4866 9.21247 48.897 9.87446 49.6436 9.87446C50.3903 9.87446 50.7907 9.23382 50.7907 8.10914C50.7907 6.98445 50.3703 6.3851 49.6222 6.3851Z" fill="white"/>
<path d="M53.9073 5.40884V6.08223C54.2963 5.53555 54.8648 5.26221 55.5901 5.26221C56.3154 5.26221 56.9053 5.52558 57.347 6.05091C57.7887 6.57624 58.0096 7.28094 58.0096 8.15364C58.0096 9.02634 57.7987 9.67695 57.3684 10.1923C56.9366 10.7077 56.3581 10.9696 55.6542 10.9696C54.9503 10.9696 54.3704 10.6963 53.9814 10.1596V12.7563H52.498V5.40884H53.9073ZM53.9287 8.13086C53.9287 9.18152 54.4231 9.80223 55.2339 9.80223C56.0447 9.80223 56.5177 9.17155 56.5177 8.15222C56.5177 7.13288 56.0233 6.4595 55.2239 6.4595C54.4245 6.4595 53.9301 7.08021 53.9301 8.13086H53.9287Z" fill="white"/>
<path d="M62.8509 10.2124C62.3351 10.7377 61.6626 11.0011 60.8105 11.0011C59.9584 11.0011 59.2844 10.7391 58.77 10.2124C58.2542 9.68707 58.002 8.99375 58.002 8.12106C58.002 7.24836 58.2656 6.56501 58.78 6.03968C59.2958 5.51435 59.9797 5.25098 60.8318 5.25098C61.6839 5.25098 62.3365 5.51293 62.8524 6.03968C63.3568 6.56501 63.6104 7.25832 63.6104 8.12106C63.6104 8.98379 63.3582 9.68707 62.8524 10.2124H62.8509ZM60.7891 6.38705C59.9897 6.38705 59.4953 7.03908 59.4953 8.12106C59.4953 9.20303 59.9797 9.87642 60.8105 9.87642C61.6412 9.87642 62.1142 9.21442 62.1142 8.11109C62.1142 7.00776 61.6198 6.38705 60.7891 6.38705Z" fill="white"/>
<path d="M37.9902 20.6355V13.1514H40.3356L42.0826 18.2907L43.7868 13.1514H46.0795V20.6355H44.5334V15.3167L42.6924 20.6355H41.42L39.5576 15.3694V20.6355H37.9902Z" fill="white"/>
<path d="M50.1398 20.6363C50.0871 20.4996 50.0557 20.3217 50.0343 20.111C49.5826 20.5623 48.9927 20.7943 48.2774 20.7943C47.0677 20.7943 46.3424 20.1736 46.3424 19.1543C46.2897 18.4496 46.71 18.0396 47.1204 17.8089C47.3626 17.6509 47.8884 17.5569 48.152 17.5043C48.2888 17.4829 48.4669 17.463 48.7092 17.4302C49.235 17.3562 49.5926 17.2836 49.7721 17.2096C49.9517 17.1355 50.0358 16.9889 50.0358 16.7782C50.0358 16.2942 49.7095 16.0521 49.0568 16.0521C48.4042 16.0521 48.0779 16.2628 47.9839 16.8821H46.5846C46.6687 15.6635 47.5108 15.0527 49.0982 15.0527C50.6855 15.0527 51.4649 15.6407 51.4649 16.8181V19.1614C51.4649 19.8447 51.5276 20.3387 51.6545 20.6334H50.1398V20.6363ZM50.0244 17.9983C49.8448 18.1036 49.4986 18.1976 48.9728 18.2816C48.5311 18.3556 48.2475 18.4396 48.1107 18.5449C47.9525 18.6816 47.8799 18.8596 47.8799 19.0916C47.8799 19.5429 48.1848 19.8177 48.7006 19.8177C49.5 19.8177 50.0258 19.3664 50.0258 18.609V17.9997L50.0244 17.9983Z" fill="white"/>
<path d="M53.2862 15.2116V15.885C53.6752 15.3383 54.2437 15.0649 54.969 15.0649C55.6943 15.0649 56.2842 15.3283 56.7259 15.8536C57.1676 16.379 57.3885 17.0837 57.3885 17.9564C57.3885 18.8291 57.1776 19.4811 56.7473 19.995C56.3156 20.5104 55.737 20.7724 55.0331 20.7724C54.3292 20.7724 53.7493 20.499 53.3603 19.9623V22.559H51.877V15.2116H53.2862ZM53.3076 17.9336C53.3076 18.9843 53.802 19.605 54.6128 19.605C55.4236 19.605 55.8966 18.9743 55.8966 17.955C55.8966 16.9356 55.4022 16.2622 54.6028 16.2622C53.8034 16.2622 53.309 16.8829 53.309 17.9336H53.3076Z" fill="white"/>
<path d="M63.0778 20.636H61.2681L59.7007 18.3027L59.0381 18.976V20.636H57.5762V15.2119H59.0381V17.3559L61.0273 15.2119H62.7842L60.6796 17.3146L63.0778 20.636Z" fill="white"/>
<path d="M67.9074 18.9555C67.5712 20.1229 66.6136 20.7949 65.3611 20.7949C64.5304 20.7949 63.8564 20.5315 63.352 20.0176C62.8362 19.5022 62.584 18.8089 62.584 17.9576C62.584 17.1062 62.8362 16.4229 63.352 15.8762C63.8678 15.3295 64.519 15.0562 65.3084 15.0562C66.0978 15.0562 66.7803 15.3295 67.2648 15.8861C67.7493 16.4428 67.9915 17.2002 67.9915 18.1569V18.3035H64.0987C64.1086 19.2388 64.5717 19.7428 65.3711 19.7428C65.8969 19.7428 66.266 19.4809 66.4754 18.9541H67.906L67.9074 18.9555ZM66.4768 17.3582C66.4027 16.6435 66.0137 16.1381 65.3098 16.1381C64.6473 16.1381 64.1842 16.6008 64.1001 17.3582H66.4783H66.4768Z" fill="white"/>
<path d="M72.6731 16.358H70.8849V20.636H69.4015V16.358H67.6133V15.2119H72.6731V16.358Z" fill="white"/>
<path d="M77.6472 20.636H76.2166V16.9673L74.2802 20.636H72.5859V15.2119H74.0165V18.8807L75.953 15.2119H77.6472V20.636Z" fill="white"/>
<path d="M83.1185 20.636H81.6351V18.3553H79.5419V20.636H78.0586V15.2119H79.5419V17.178H81.6351V15.2119H83.1185V20.636Z" fill="white"/>
<path d="M87.6297 16.358H85.0107V20.636H83.5273V15.2119H87.6297V16.358Z" fill="white"/>
<path d="M92.1986 20.0151C91.6828 20.5405 91.0102 20.8038 90.1581 20.8038C89.306 20.8038 88.6334 20.5405 88.1176 20.0151C87.6018 19.4898 87.3496 18.7965 87.3496 17.9238C87.3496 17.0511 87.6118 16.3677 88.1276 15.8424C88.6434 15.3171 89.3274 15.0537 90.1795 15.0537C91.0316 15.0537 91.6842 15.3171 92.2 15.8424C92.7044 16.3677 92.9581 17.0611 92.9581 17.9238C92.9581 18.7865 92.7058 19.4898 92.2 20.0151H92.1986ZM90.1367 16.1898C89.3374 16.1898 88.8429 16.8418 88.8429 17.9238C88.8429 19.0058 89.3274 19.6792 90.1581 19.6792C90.9888 19.6792 91.4619 19.0172 91.4619 17.9138C91.4619 16.8105 90.9675 16.1898 90.1367 16.1898Z" fill="white"/>
<path d="M93.1426 15.2119H96.2674C97.2876 15.2119 98.0029 15.6632 98.0029 16.5786C98.0029 17.094 97.7607 17.4727 97.2663 17.6933C97.9289 17.8827 98.2552 18.324 98.2552 19.0173C98.2552 20.0367 97.4772 20.636 96.4142 20.636H93.1426V15.2119ZM94.6159 17.3873H95.6048C96.1933 17.3873 96.4883 17.1766 96.4883 16.7665C96.4883 16.2939 96.152 16.1572 95.6048 16.1572H94.6159V17.3873ZM94.6159 19.6679H95.7202C96.3415 19.6679 96.7091 19.5099 96.7091 18.9533C96.7091 18.3966 96.2988 18.2286 95.6575 18.2286H94.6159V19.6679Z" fill="white"/>
<path d="M103.516 20.636H102.086V16.9673L100.149 20.636H98.4551V15.2119H99.8857V18.8807L101.822 15.2119H103.516V20.636Z" fill="white"/>
<path d="M108.777 15.2119L106.988 17.7446L108.998 20.6346H107.293L106.146 18.8792L105.011 20.6346H103.316L105.294 17.7759L103.495 15.2119H105.199L106.166 16.6626L107.124 15.2119H108.775H108.777Z" fill="white"/>
<path d="M43.5546 22.9565V24.3546H41.3032V30.4407H39.6518V24.3546H37.4004V22.9565H43.5546Z" fill="white"/>
<path d="M48.591 28.7583C48.2548 29.9257 47.2972 30.5976 46.0447 30.5976C45.214 30.5976 44.54 30.3342 44.0356 29.8203C43.5198 29.3049 43.2676 28.6116 43.2676 27.7603C43.2676 26.9089 43.5198 26.2256 44.0356 25.6789C44.5514 25.1322 45.204 24.8589 45.992 24.8589C46.78 24.8589 47.4654 25.1322 47.9484 25.6889C48.4329 26.2455 48.6737 27.0029 48.6737 27.9596V28.1062H44.7808C44.7908 29.0416 45.2539 29.5455 46.0533 29.5455C46.5791 29.5455 46.9481 29.2836 47.1576 28.7568H48.5882L48.591 28.7583ZM47.1604 27.1609C47.0863 26.4463 46.6973 25.9409 45.992 25.9409C45.3294 25.9409 44.8663 26.4035 44.7823 27.1609H47.159H47.1604Z" fill="white"/>
<path d="M53.6302 25.0171L51.8419 27.5498L53.851 30.4398H52.1468L50.9998 28.6844L49.8641 30.4398H48.1699L50.1477 27.5811L48.348 25.0171H50.0522L51.0197 26.4678L51.9773 25.0171H53.6288H53.6302Z" fill="white"/>
<path d="M58.7239 30.4412H57.2406V28.1605H55.1474V30.4412H53.6641V25.0171H55.1474V26.9832H57.2406V25.0171H58.7239V30.4412Z" fill="white"/>
<path d="M63.8041 29.8203C63.2882 30.3456 62.6157 30.609 61.7636 30.609C60.9115 30.609 60.2375 30.3456 59.7231 29.8203C59.2073 29.295 58.9551 28.6017 58.9551 27.729C58.9551 26.8563 59.2187 26.1729 59.7331 25.6476C60.2475 25.1223 60.9329 24.8589 61.7849 24.8589C62.637 24.8589 63.2897 25.1223 63.8055 25.6476C64.3099 26.1729 64.5635 26.8662 64.5635 27.729C64.5635 28.5917 64.3113 29.295 63.8055 29.8203H63.8041ZM61.7422 25.995C60.9428 25.995 60.4484 26.647 60.4484 27.729C60.4484 28.8109 60.9329 29.4843 61.7636 29.4843C62.5943 29.4843 63.0674 28.8223 63.0674 27.719C63.0674 26.6157 62.5729 25.995 61.7422 25.995Z" fill="white"/>
<path d="M69.82 30.4407H68.3367V26.1627H66.9061L66.8434 28.0761C66.8334 28.496 66.8334 28.6541 66.7693 29.0641C66.7066 29.4741 66.6325 29.6634 66.4644 29.9581C66.2335 30.3568 65.7904 30.6102 65.0965 30.6102C64.7288 30.6102 64.4652 30.5788 64.2871 30.5048V29.3175C64.4652 29.3488 64.602 29.3702 64.7075 29.3702C65.1392 29.3702 65.3601 28.9915 65.3814 28.2455L65.4655 25.0181H69.82V30.4422V30.4407Z" fill="white"/>
<path d="M74.9369 29.8203C74.421 30.3456 73.7485 30.609 72.8964 30.609C72.0443 30.609 71.3717 30.3456 70.8559 29.8203C70.3401 29.295 70.0879 28.6017 70.0879 27.729C70.0879 26.8563 70.3501 26.1729 70.8659 25.6476C71.3817 25.1223 72.0657 24.8589 72.9178 24.8589C73.7699 24.8589 74.4225 25.1223 74.9383 25.6476C75.4427 26.1729 75.6963 26.8662 75.6963 27.729C75.6963 28.5917 75.4441 29.295 74.9383 29.8203H74.9369ZM72.875 25.995C72.0756 25.995 71.5812 26.647 71.5812 27.729C71.5812 28.8109 72.0657 29.4843 72.8964 29.4843C73.7271 29.4843 74.2002 28.8223 74.2002 27.719C74.2002 26.6157 73.7057 25.995 72.875 25.995Z" fill="white"/>
<path d="M80.0262 26.1631H77.4072V30.4412H75.9238V25.0171H80.0262V26.1631Z" fill="white"/>
<path d="M81.4367 22.9565V24.2179H79.9434V22.9565H81.4367ZM81.4367 25.0166V30.4407H79.9434V25.0166H81.4367Z" fill="white"/>
<path d="M86.9285 30.4407H85.4979V26.7719L83.5614 30.4407H81.8672V25.0166H83.2978V28.6853L85.2343 25.0166H86.9285V30.4407ZM86.1077 22.9565C86.1077 23.9659 85.5392 24.4699 84.3936 24.4699C83.2479 24.4699 82.678 23.9659 82.678 22.9565H83.2679C83.3619 23.4192 83.731 23.6499 84.3936 23.6499C85.0561 23.6499 85.4238 23.4192 85.5192 22.9565H86.1077Z" fill="white"/>
<path d="M4.25195 15.0883L4.84329 12.2452C4.92879 11.8395 5.05275 11.4537 5.21234 11.0907C5.37193 10.7276 5.58852 10.4073 5.85925 10.1311C6.12999 9.85351 6.47196 9.63 6.88519 9.45774C7.29841 9.28548 7.80568 9.18725 8.40984 9.16162L8.13341 10.4543C7.59052 10.5525 7.20579 10.7433 6.97781 11.0266C6.74982 11.3099 6.58596 11.7156 6.48764 12.2452H7.76293L7.1716 15.0883H4.25195Z" fill="white"/>
<path d="M10.6639 21.7029C10.9802 22.0118 11.3892 22.167 11.8922 22.167C12.4208 22.167 12.8782 22.0389 13.2658 21.7812C13.6519 21.5235 13.9811 21.1989 14.2518 20.806C14.5226 20.4131 14.752 19.9789 14.9386 19.502C15.1253 19.025 15.2892 18.568 15.4316 18.1296L15.3932 18.0911C15.0455 18.5937 14.6066 18.9581 14.078 19.1831C13.5493 19.408 12.995 19.5219 12.4151 19.5219C11.8352 19.5219 11.2581 19.4251 10.7608 19.2315C10.2649 19.0378 9.84172 18.7617 9.49404 18.4C9.14636 18.0399 8.87848 17.6042 8.69182 17.096C8.50515 16.5877 8.41111 16.0169 8.41111 15.3862C8.41111 14.6644 8.54362 13.9853 8.80723 13.3475C9.07084 12.7097 9.43847 12.1559 9.91011 11.6861C10.3803 11.2163 10.9346 10.8462 11.573 10.5757C12.2113 10.3052 12.8982 10.1699 13.6334 10.1699C14.4969 10.1699 15.2322 10.308 15.8377 10.5856C16.4433 10.8632 16.9406 11.2462 17.3268 11.7359C17.7129 12.2257 17.9936 12.8051 18.1675 13.4756C18.3413 14.1462 18.4282 14.8794 18.4282 15.678C18.4282 16.8639 18.28 17.9744 17.9837 19.0108C17.6873 20.0472 17.2513 20.9526 16.6784 21.7257C16.1042 22.4987 15.4088 23.1066 14.5895 23.5522C13.7702 23.9964 12.8383 24.2185 11.7953 24.2185C11.2025 24.2185 10.6511 24.1473 10.1409 24.0064C9.63083 23.8654 9.19053 23.6419 8.81578 23.3401C8.44103 23.0369 8.1418 22.6482 7.91666 22.1713C7.69153 21.6944 7.56614 21.1278 7.53906 20.4715H10.1694C10.1823 20.9868 10.3461 21.3997 10.6625 21.7086L10.6639 21.7029ZM15.6254 13.7903C15.5214 13.5141 15.3775 13.2749 15.1908 13.0756C15.0042 12.8763 14.7847 12.7183 14.5339 12.6015C14.2832 12.4862 14.0082 12.4278 13.7118 12.4278C12.8996 12.4278 12.2712 12.6884 11.8266 13.2108C11.382 13.7319 11.1598 14.3868 11.1598 15.1726C11.1598 15.9585 11.3535 16.5194 11.7397 16.8924C12.1259 17.2668 12.6488 17.4533 13.3057 17.4533C13.6918 17.4533 14.0367 17.3793 14.3402 17.2312C14.6437 17.0832 14.9016 16.8839 15.1139 16.6319C15.3262 16.3813 15.4915 16.088 15.6069 15.7521C15.7223 15.4175 15.7807 15.0687 15.7807 14.7085C15.7807 14.374 15.7294 14.0679 15.6254 13.7903Z" fill="white"/>
<path d="M21.0506 21.7029C21.3669 22.0118 21.7759 22.167 22.2789 22.167C22.8075 22.167 23.2649 22.0389 23.6525 21.7812C24.0386 21.5235 24.3678 21.1989 24.6385 20.806C24.9093 20.4131 25.1387 19.9789 25.3253 19.502C25.512 19.025 25.6759 18.568 25.8184 18.1296L25.7799 18.0911C25.4322 18.5937 24.9933 18.9581 24.4647 19.1831C23.9361 19.408 23.3818 19.5219 22.8018 19.5219C22.2219 19.5219 21.6448 19.4251 21.1475 19.2315C20.6516 19.0378 20.2284 18.7617 19.8808 18.4C19.5331 18.0399 19.2652 17.6042 19.0785 17.096C18.8919 16.5877 18.7978 16.0169 18.7978 15.3862C18.7978 14.6644 18.9303 13.9853 19.194 13.3475C19.4576 12.7097 19.8252 12.1559 20.2968 11.6861C20.7671 11.2163 21.3213 10.8462 21.9597 10.5757C22.5981 10.3052 23.2849 10.1699 24.0201 10.1699C24.8836 10.1699 25.6189 10.308 26.2245 10.5856C26.83 10.8632 27.3273 11.2462 27.7135 11.7359C28.0996 12.2257 28.3804 12.8051 28.5542 13.4756C28.728 14.1462 28.8149 14.8794 28.8149 15.678C28.8149 16.8639 28.6668 17.9744 28.3704 19.0108C28.074 20.0472 27.638 20.9526 27.0652 21.7257C26.4909 22.4987 25.7956 23.1066 24.9762 23.5522C24.1569 23.9964 23.225 24.2185 22.182 24.2185C21.5892 24.2185 21.0378 24.1473 20.5277 24.0064C20.0175 23.8654 19.5773 23.6419 19.2025 23.3401C18.8277 23.0369 18.5285 22.6482 18.3034 22.1713C18.0782 21.6944 17.9529 21.1278 17.9258 20.4715H20.5562C20.569 20.9868 20.7329 21.3997 21.0492 21.7086L21.0506 21.7029ZM26.0121 13.7903C25.9081 13.5141 25.7642 13.2749 25.5776 13.0756C25.3909 12.8763 25.1715 12.7183 24.9207 12.6015C24.6699 12.4862 24.3949 12.4278 24.0985 12.4278C23.2863 12.4278 22.6579 12.6884 22.2133 13.2108C21.7688 13.7319 21.5465 14.3868 21.5465 15.1726C21.5465 15.9585 21.7403 16.5194 22.1264 16.8924C22.5126 17.2668 23.0355 17.4533 23.6924 17.4533C24.0785 17.4533 24.4234 17.3793 24.7269 17.2312C25.0304 17.0832 25.2883 16.8839 25.5006 16.6319C25.7129 16.3813 25.8782 16.088 25.9936 15.7521C26.109 15.4175 26.1675 15.0687 26.1675 14.7085C26.1675 14.374 26.1162 14.0679 26.0121 13.7903Z" fill="white"/>
<path d="M16.9949 1.79612C25.3734 1.79612 32.1902 8.60686 32.1902 16.9779C32.1902 25.349 25.3734 32.1597 16.9949 32.1597C8.61644 32.1597 1.79966 25.349 1.79966 16.9779C1.79966 8.60686 8.61501 1.79612 16.9949 1.79612ZM16.9949 -0.00195312C7.60902 -0.00195312 0 7.60034 0 16.9779C0 26.3555 7.60902 33.9578 16.9949 33.9578C26.3808 33.9578 33.9898 26.3555 33.9898 16.9779C33.9898 7.60034 26.3808 -0.00195312 16.9949 -0.00195312Z" fill="white"/>
</g>
<defs>
<clipPath id="clip0_1_9299">
<rect width="109" height="34" fill="white"/>
</clipPath>
</defs>
</svg>
