<svg width="415" height="97" viewBox="0 0 415 97" fill="none" xmlns="http://www.w3.org/2000/svg">
<g clip-path="url(#clip0_1_11517)">
<path d="M164.555 54.2857H155.91V21.7707L143.874 54.2857H134.683L122.499 21.4277V54.2857H113.924V10.631H127.067L139.244 43.715L151.537 10.631H164.524L164.555 54.2857Z" fill="#F0D9EA"/>
<path d="M206.253 47.1607V54.2858C205.268 54.4626 204.268 54.541 203.268 54.5197C199.019 54.5197 196.836 52.906 196.252 49.2343C193.726 52.6799 189.236 54.8627 184.184 54.8627C177.527 54.8627 172.928 50.8402 172.928 44.7286C172.928 35.9976 181.199 34.2748 187.739 33.4719C192.222 32.895 195.098 32.3182 195.098 30.0185C195.098 27.7188 192.565 26.0038 188.433 26.0038C186.601 26.0062 184.789 26.3845 183.109 27.1152C181.428 27.846 179.916 28.9137 178.665 30.2524L173.723 25.084C177.809 21.2059 183.261 19.099 188.893 19.2218C197.624 19.2218 202.792 23.5872 202.792 30.7123V45.0949C202.752 45.3756 202.777 45.6619 202.867 45.931C202.956 46.2001 203.107 46.4446 203.308 46.6451C203.508 46.8457 203.753 46.9967 204.022 47.0862C204.291 47.1757 204.577 47.2012 204.858 47.1607H206.253ZM194.88 40.9244V37.4164C193.5 38.1959 191.551 38.5623 188.643 39.0223C184.746 39.7083 180.949 40.2851 180.949 44.0815C180.949 46.7164 182.789 48.3301 185.892 48.3301C190.857 48.3301 194.888 44.978 194.888 40.9633L194.88 40.9244Z" fill="#F0D9EA"/>
<path d="M239.11 27.5153H221.648V54.285H213.377V19.8212H239.102L239.11 27.5153Z" fill="#F0D9EA"/>
<path d="M276.677 19.8212V54.285H268.406V40.5337H253.47V54.285H245.199V19.8212H253.47V32.9176H268.406V19.8212H276.677Z" fill="#F0D9EA"/>
<path d="M284.145 37.049C284.145 26.3692 291.387 19.2441 301.949 19.2441C312.754 19.2441 319.762 26.2601 319.762 37.049C319.762 47.8379 312.52 54.8617 301.949 54.8617C291.153 54.8617 284.145 47.8535 284.145 37.049ZM311.257 37.049C311.257 30.2747 307.695 26.1353 301.949 26.1353C296.204 26.1353 292.649 30.2747 292.649 37.049C292.649 43.8233 296.212 47.9627 301.949 47.9627C307.687 47.9627 311.257 43.8311 311.257 37.049Z" fill="#F0D9EA"/>
<path d="M356.987 54.285H348.716V27.2814H336.306V38.3198C336.306 50.6133 333.546 54.5188 326.172 54.5188C324.981 54.5107 323.791 54.4326 322.609 54.285V46.8169H324.566C327.318 46.8169 328.121 45.7879 328.121 37.4V19.8212H356.964L356.987 54.285Z" fill="#F0D9EA"/>
<path d="M367.207 7.87061H376.172V15.2217H367.207V7.87061ZM367.55 19.8211H375.829V54.2849H367.55V19.8211Z" fill="#F0D9EA"/>
<path d="M415.002 54.2851H406.731V41.7655H394.78V47.2769C394.78 51.9542 392.029 54.402 387.312 54.402C386.087 54.4252 384.862 54.3862 383.641 54.2851V47.0509H384.903C385.136 47.0691 385.369 47.0374 385.588 46.9577C385.807 46.878 386.007 46.7523 386.173 46.589C386.339 46.4257 386.468 46.2286 386.552 46.0111C386.636 45.7936 386.672 45.5607 386.657 45.3281V38.1952H392.114C388.326 36.8154 385.223 33.7128 385.223 29.5734C385.223 23.6021 389.822 19.8135 397.057 19.8135H414.986L415.002 54.2851ZM393.673 30.961C393.673 33.9545 395.973 35.7864 400.105 35.7864H406.77V26.2525H399.754C395.7 26.2525 393.673 27.9753 393.673 30.961Z" fill="#F0D9EA"/>
<path d="M113.885 78.4978C113.885 73.8205 116.917 70.6166 121.407 70.6166C125.898 70.6166 128.969 73.7348 128.969 78.4978C128.969 83.2608 125.89 86.3868 121.407 86.3868C116.925 86.3868 113.885 83.2686 113.885 78.4978ZM125.773 78.4978C125.773 75.3796 124.034 73.3216 121.407 73.3216C118.78 73.3216 117.042 75.3484 117.042 78.4978C117.042 81.6472 118.78 83.674 121.407 83.674C124.034 83.674 125.773 81.655 125.773 78.4978Z" fill="#A5307B"/>
<path d="M143.726 80.1196C143.726 83.877 141.59 86.356 138.511 86.356C137.771 86.3845 137.035 86.2426 136.359 85.9411C135.683 85.6397 135.086 85.1869 134.613 84.6176V90.1992H131.744V74.0547H134.332L134.496 75.8711C134.952 75.2293 135.559 74.7095 136.263 74.3574C136.967 74.0053 137.747 73.8318 138.534 73.8521C141.668 73.8521 143.726 76.3154 143.726 80.1196ZM140.779 80.1196C140.779 77.781 139.563 76.2764 137.622 76.2764C135.681 76.2764 134.504 77.7732 134.504 80.1196C134.504 82.4661 135.673 83.9628 137.622 83.9628C139.571 83.9628 140.779 82.4661 140.779 80.1196Z" fill="#A5307B"/>
<path d="M155.418 76.7595H149.275V86.1842H146.359V74.0544H155.418V76.7595Z" fill="#A5307B"/>
<path d="M168.156 83.6747V86.1848C167.811 86.2437 167.461 86.2698 167.111 86.2628C165.615 86.2628 164.843 85.7015 164.64 84.4075C164.136 85.0441 163.49 85.5545 162.754 85.8982C162.018 86.2419 161.212 86.4094 160.4 86.3875C158.061 86.3875 156.432 84.9687 156.432 82.825C156.432 79.7536 159.347 79.1455 161.647 78.8649C163.206 78.6622 164.235 78.4595 164.235 77.6566C164.235 76.8536 163.346 76.2378 161.896 76.2378C161.252 76.2377 160.615 76.3706 160.025 76.6282C159.435 76.8857 158.904 77.2624 158.466 77.7345L156.689 75.9104C158.125 74.5474 160.042 73.8076 162.021 73.8524C165.092 73.8524 166.917 75.4115 166.917 77.8982V82.9497C166.902 83.0483 166.911 83.1488 166.942 83.2433C166.974 83.3379 167.027 83.4238 167.097 83.4942C167.167 83.5646 167.253 83.6176 167.348 83.6489C167.442 83.6803 167.543 83.6891 167.642 83.6747H168.156ZM164.157 81.492V80.2447C163.465 80.5514 162.728 80.741 161.974 80.806C160.594 81.0476 159.261 81.2503 159.261 82.5833C159.261 83.5188 159.908 84.08 161 84.08C162.738 84.08 164.157 82.9107 164.157 81.492Z" fill="#A5307B"/>
<path d="M181.751 74.0544V86.1842H178.836V81.3354H173.582V86.1842H170.666V74.0544H173.582V78.6616H178.836V74.0544H181.751Z" fill="#A5307B"/>
<path d="M185.314 69.8523H188.433V72.4326H185.314V69.8523ZM185.431 74.0541H188.347V86.1838H185.431V74.0541Z" fill="#A5307B"/>
<path d="M201.326 82.7466C201.326 84.8903 199.105 86.387 195.986 86.387C193.484 86.387 191.504 85.2957 190.615 83.2689L192.915 82.0995C193.183 82.6965 193.622 83.2 194.178 83.5458C194.733 83.8915 195.379 84.0638 196.033 84.0406C197.452 84.0406 198.372 83.4326 198.372 82.4815C198.372 81.5305 197.592 81.0627 196.314 81.0627H194.692V78.9658H196.251C197.304 78.9658 197.998 78.4357 197.998 77.586C197.998 76.7362 197.265 76.175 196.01 76.175C195.41 76.1613 194.82 76.3173 194.305 76.6248C193.791 76.9324 193.374 77.3791 193.102 77.9134L190.989 76.518C191.528 75.6536 192.289 74.9499 193.193 74.4808C194.096 74.0118 195.11 73.7945 196.127 73.8519C198.917 73.8519 200.804 75.2707 200.804 77.3677C200.828 77.891 200.701 78.4102 200.437 78.8625C200.172 79.3149 199.783 79.681 199.315 79.9168C199.907 80.1138 200.421 80.4942 200.783 81.003C201.145 81.5117 201.335 82.1224 201.326 82.7466Z" fill="#A5307B"/>
<path d="M214.306 83.6747V86.1848C213.961 86.2437 213.612 86.2698 213.262 86.2628C211.765 86.2628 210.993 85.7015 210.791 84.4075C210.286 85.0441 209.64 85.5545 208.904 85.8982C208.168 86.2419 207.362 86.4094 206.55 86.3875C204.211 86.3875 202.582 84.9687 202.582 82.825C202.582 79.7536 205.498 79.1455 207.797 78.8649C209.356 78.6622 210.385 78.4595 210.385 77.6566C210.385 76.8536 209.497 76.2378 208.047 76.2378C207.403 76.2377 206.766 76.3706 206.175 76.6282C205.585 76.8857 205.055 77.2624 204.617 77.7345L202.878 75.9104C204.314 74.5474 206.231 73.8076 208.21 73.8524C211.282 73.8524 213.106 75.4115 213.106 77.8982V82.9497C213.092 83.0483 213.1 83.1488 213.132 83.2433C213.163 83.3379 213.216 83.4238 213.286 83.4942C213.357 83.5646 213.443 83.6176 213.537 83.6489C213.632 83.6803 213.732 83.6891 213.831 83.6747H214.306ZM210.307 81.492V80.2447C209.616 80.5523 208.878 80.7421 208.125 80.806C206.745 81.0476 205.412 81.2503 205.412 82.5833C205.412 83.5188 206.059 84.08 207.15 84.08C208.92 84.08 210.307 82.9107 210.307 81.492Z" fill="#A5307B"/>
<path d="M229.398 83.5571V89.014H226.608V86.1842H216.824V74.0544H219.732V83.5571H224.869V74.0544H227.777V83.5571H229.398Z" fill="#A5307B"/>
<path d="M231.906 69.8523H235.024V72.4326H231.906V69.8523ZM232.023 74.0541H234.939V86.1838H232.023V74.0541Z" fill="#A5307B"/>
<path d="M248.73 86.1842H245.814V81.7798H241.613V83.7208C241.613 85.3735 240.638 86.2232 238.985 86.2232C238.455 86.2232 238.136 86.2232 237.691 86.2232V83.6741H238.136C238.217 83.6786 238.298 83.6659 238.374 83.637C238.449 83.608 238.518 83.5634 238.576 83.506C238.633 83.4486 238.678 83.3798 238.707 83.3039C238.736 83.2281 238.748 83.147 238.744 83.066V80.5247H240.685C240.015 80.3336 239.421 79.9392 238.986 79.3959C238.55 78.8527 238.294 78.1874 238.253 77.4923C238.253 75.3875 239.874 74.0544 242.423 74.0544H248.73V86.1842ZM241.207 77.9522C241.207 79.0046 241.987 79.6516 243.476 79.6516H245.814V76.3151H243.351C241.932 76.3151 241.207 76.9232 241.207 77.9522Z" fill="#A5307B"/>
<path d="M267.938 82.7459C267.938 84.8896 265.716 86.3863 262.598 86.3863C260.095 86.3863 258.115 85.295 257.227 83.2682L259.526 82.0988C259.794 82.6958 260.234 83.1993 260.789 83.5451C261.345 83.8908 261.991 84.0631 262.644 84.0399C264.055 84.0399 264.983 83.4319 264.983 82.4808C264.983 81.5298 264.204 81.062 262.917 81.062H261.304V78.9651H262.863C263.915 78.9651 264.601 78.435 264.601 77.5852C264.601 76.7355 263.868 76.1743 262.613 76.1743C262.014 76.1615 261.424 76.3179 260.909 76.6253C260.395 76.9328 259.978 77.3789 259.706 77.9127L257.648 76.4939C258.183 75.6289 258.943 74.9246 259.846 74.4554C260.748 73.9862 261.761 73.7693 262.777 73.8278C265.568 73.8278 267.454 75.2466 267.454 77.3436C267.477 77.8675 267.348 78.3869 267.082 78.8392C266.817 79.2914 266.426 79.6573 265.958 79.8927C266.548 80.0962 267.058 80.4825 267.414 80.9955C267.77 81.5085 267.953 82.1216 267.938 82.7459Z" fill="#A5307B"/>
<path d="M280.927 83.6747V86.1848C280.58 86.2436 280.228 86.2697 279.875 86.2628C278.378 86.2628 277.607 85.7015 277.404 84.4075C276.899 85.0441 276.253 85.5545 275.517 85.8982C274.781 86.2419 273.975 86.4094 273.163 86.3875C270.825 86.3875 269.195 84.9687 269.195 82.825C269.195 79.7536 272.111 79.1455 274.41 78.8649C275.97 78.6622 276.999 78.4595 276.999 77.6566C276.999 76.8536 276.11 76.2378 274.66 76.2378C274.015 76.2366 273.376 76.369 272.784 76.6266C272.193 76.8842 271.661 77.2614 271.222 77.7345L269.484 75.9104C270.92 74.5474 272.836 73.8076 274.816 73.8524C277.934 73.8524 279.711 75.4115 279.711 77.8982V82.9497C279.697 83.0483 279.706 83.1488 279.737 83.2433C279.768 83.3379 279.821 83.4238 279.892 83.4942C279.962 83.5646 280.048 83.6176 280.143 83.6489C280.237 83.6803 280.338 83.6891 280.436 83.6747H280.927ZM276.921 81.492V80.2447C276.229 80.5523 275.492 80.7421 274.738 80.806C273.366 81.0476 272.033 81.2503 272.033 82.5833C272.033 83.5188 272.672 84.08 273.763 84.08C275.502 84.08 276.921 82.9107 276.921 81.492Z" fill="#A5307B"/>
<path d="M291.038 86.1842L288.084 81.9747L285.129 86.1842H281.738L286.221 80.0414L281.941 74.0544H285.316L288.146 78.0535L291.038 74.0544H294.273L289.986 80.0414L294.476 86.1842H291.038Z" fill="#A5307B"/>
<path d="M307.78 74.0544V86.1842H304.943V78.1783L299.572 86.1842H296.656V74.0544H299.525V82.0604L304.865 74.0544H307.78Z" fill="#A5307B"/>
<path d="M310.453 80.1188C310.453 76.3614 312.955 73.8824 316.635 73.8824C319.348 73.8824 321.492 75.2155 322.139 77.5229L319.387 78.3726C319.22 77.7658 318.854 77.2325 318.348 76.858C317.842 76.4835 317.225 76.2895 316.596 76.3068C314.655 76.3068 313.478 77.8036 313.478 80.15C313.478 82.4964 314.686 83.9932 316.596 83.9932C317.23 84.0112 317.852 83.818 318.364 83.4441C318.876 83.0702 319.25 82.5367 319.426 81.9274L322.139 82.7771C321.492 85.1157 319.348 86.4176 316.635 86.4176C312.955 86.3864 310.453 83.8762 310.453 80.1188Z" fill="#A5307B"/>
<path d="M334.311 76.6815H330.07V86.1842H327.155V76.6815H322.875V74.0544H334.311V76.6815Z" fill="#A5307B"/>
<path d="M348.1 74.0544L344.202 85.8568C343.103 89.0529 341.692 90.4327 339.47 90.4327C338.965 90.4693 338.457 90.3973 337.982 90.2215C337.506 90.0458 337.074 89.7703 336.714 89.4137C336.353 89.0571 336.073 88.6276 335.893 88.1539C335.712 87.6803 335.635 87.1735 335.666 86.6675C335.659 85.548 336.096 84.4714 336.882 83.6741H338.574L334.879 74.0544H337.997L341.349 83.6741H342.129L344.99 74.0544H348.1ZM341.146 86.4259L341.349 85.8178H338.402C338.242 86.1032 338.158 86.4257 338.161 86.7533C338.152 86.9256 338.179 87.0978 338.241 87.2589C338.303 87.42 338.398 87.5662 338.52 87.6882C338.642 87.8102 338.788 87.9052 338.949 87.9671C339.11 88.029 339.283 88.0563 339.455 88.0473C340.258 88.0863 340.788 87.4783 341.146 86.4259Z" fill="#A5307B"/>
<path d="M369.177 83.5571V89.014H366.386V86.1842H358.256V89.014H355.473V83.5571H356.93C357.166 82.0857 357.26 80.5952 357.211 79.1059V74.0544H367.556V83.5571H369.177ZM364.687 83.6351V76.6192H360.01V79.2462C360.036 80.7196 359.942 82.1926 359.729 83.6507L364.687 83.6351Z" fill="#A5307B"/>
<path d="M371.688 69.8523H374.806V72.4326H371.688V69.8523ZM371.843 74.0541H374.759V86.1838H371.843V74.0541Z" fill="#A5307B"/>
<path d="M388.549 76.6815H384.316V86.1842H381.401V76.6815H377.113V74.0544H388.557L388.549 76.6815Z" fill="#A5307B"/>
<path d="M395.549 83.9628C396.194 83.9892 396.837 83.8721 397.431 83.62C398.026 83.368 398.557 82.9871 398.987 82.505L400.803 84.2434C400.135 84.9603 399.319 85.5233 398.412 85.8935C397.504 86.2636 396.528 86.4321 395.549 86.3872C391.378 86.3872 389.234 83.7211 389.234 80.1508C389.234 76.5805 391.667 73.9144 395.346 73.9144C399.025 73.9144 401.286 76.3778 401.286 80.1508C401.293 80.4619 401.267 80.7728 401.208 81.0785H392.15C392.229 81.9072 392.629 82.6723 393.263 83.211C393.898 83.7496 394.718 84.0194 395.549 83.9628ZM392.189 78.9035H398.347C398.02 77.1651 396.929 76.1985 395.354 76.1985C394.582 76.164 393.825 76.4242 393.238 76.9264C392.65 77.4287 392.275 78.1354 392.189 78.9035Z" fill="#A5307B"/>
<path d="M414.999 74.0542V86.184H412.169V78.178L406.791 86.184H403.883V74.0542H406.752V82.0602L412.091 74.0542H414.999ZM405.535 69.9694L407.765 69.6498C407.837 70.0473 408.046 70.4071 408.356 70.6662C408.665 70.9252 409.057 71.0672 409.46 71.0672C409.864 71.0672 410.256 70.9252 410.565 70.6662C410.875 70.4071 411.084 70.0473 411.156 69.6498L413.386 69.9694C413.144 71.7857 411.725 72.9239 409.488 72.9239C407.25 72.9239 405.785 71.7857 405.535 69.9694Z" fill="#A5307B"/>
<path d="M85.1266 54.2851H96.8198C96.8219 47.158 95.4201 40.1003 92.6946 33.5149C89.969 26.9295 85.9731 20.9455 80.9349 15.9044C75.8967 10.8633 69.915 6.86394 63.3312 4.13462C56.7473 1.4053 49.6904 -0.000516337 42.5633 -0.00256348V11.6907C32.057 11.68 21.9206 15.569 14.1176 22.6043L25.577 39.9648L6.51702 31.725C2.26051 38.48 0.00122647 46.301 0 54.2851C0.000736531 56.5116 0.172744 58.7346 0.514501 60.9347H0.56907L21.2894 60.8022L4.00688 72.2927C8.34597 81.5884 15.8986 89.0026 25.2729 93.169L36.475 75.6837L36.6855 96.4197C38.6338 96.6825 40.5974 96.8153 42.5633 96.8173C50.8101 96.8305 58.8813 94.4355 65.786 89.9261L57.211 71.0064L74.7352 82.154C81.4537 74.4257 85.1452 64.5254 85.1266 54.2851ZM85.1266 54.2851H74.9925C74.9925 50.029 74.1537 45.8145 72.5239 41.8827C70.8942 37.9509 68.5056 34.3789 65.4946 31.3708C62.4836 28.3627 58.9092 25.9775 54.9759 24.3515C51.0425 22.7256 46.8273 21.8908 42.5711 21.8949C42.5711 16.0405 42.5711 11.7608 42.5711 11.7608C53.8494 11.7649 64.6649 16.246 72.6413 24.2195C80.6177 32.193 85.1028 43.0068 85.111 54.2851H85.1266ZM42.5711 38.1953V29.2695C49.2043 29.2715 55.5652 31.908 60.2548 36.5991C64.9445 41.2903 67.579 47.6519 67.579 54.2851H58.622C58.6251 52.1746 58.2123 50.0841 57.4072 48.1332C56.6021 46.1822 55.4206 44.409 53.93 42.9148C52.4394 41.4206 50.6691 40.2348 48.7201 39.425C46.7711 38.6152 44.6816 38.1973 42.5711 38.1953Z" fill="#A5307B"/>
<path d="M58.6291 54.2852C58.6214 57.4577 57.6737 60.5569 55.9056 63.1911C54.1376 65.8254 51.6286 67.8766 48.6954 69.0857C45.7623 70.2948 42.5366 70.6076 39.4259 69.9845C36.3151 69.3614 33.4587 67.8304 31.2175 65.5849C28.9764 63.3394 27.4509 60.48 26.8339 57.368C26.2168 54.2561 26.5358 51.031 27.7506 48.1002C28.9654 45.1694 31.0215 42.6644 33.6592 40.9015C36.2969 39.1386 39.3978 38.1969 42.5704 38.1953V54.254L58.6291 54.2852Z" fill="#F0D9EA"/>
</g>
<defs>
<clipPath id="clip0_1_11517">
<rect width="415" height="96.851" fill="white"/>
</clipPath>
</defs>
</svg>
