<svg width="707" height="165" viewBox="0 0 707 165" fill="none" xmlns="http://www.w3.org/2000/svg">
<path d="M271.218 92.1613H256.969V38.5694L237.131 92.1613H221.983L201.901 38.004V92.1613H187.768V20.2086H209.43L229.499 74.7385L249.761 20.2086H271.167L271.218 92.1613Z" fill="#611243"/>
<path d="M339.945 80.4176V92.1613C338.321 92.4527 336.673 92.5818 335.024 92.5467C328.021 92.5467 324.424 89.8871 323.46 83.8353C319.297 89.5144 311.897 93.1121 303.571 93.1121C292.598 93.1121 285.018 86.4821 285.018 76.4088C285.018 62.0182 298.65 59.1787 309.43 57.8552C316.817 56.9044 321.559 55.9536 321.559 52.1633C321.559 48.3729 317.383 45.5462 310.573 45.5462C307.553 45.5501 304.567 46.1736 301.797 47.378C299.028 48.5825 296.536 50.3424 294.474 52.5487L286.328 44.03C293.062 37.6382 302.049 34.1654 311.331 34.3678C325.721 34.3678 334.24 41.5631 334.24 53.3068V77.0127C334.173 77.4753 334.215 77.9471 334.363 78.3906C334.51 78.8342 334.759 79.2372 335.09 79.5677C335.42 79.8982 335.823 80.1471 336.267 80.2947C336.71 80.4422 337.182 80.4843 337.645 80.4176H339.945ZM321.199 70.1386V64.3567C318.925 65.6416 315.713 66.2454 310.92 67.0035C304.496 68.1342 298.239 69.085 298.239 75.3423C298.239 79.6852 301.271 82.3449 306.385 82.3449C314.569 82.3449 321.212 76.8199 321.212 70.2028L321.199 70.1386Z" fill="#611243"/>
<path d="M394.1 48.0389H365.32V92.1614H351.688V35.3572H394.087L394.1 48.0389Z" fill="#611243"/>
<path d="M456.017 35.3572V92.1614H442.385V69.4962H417.767V92.1614H404.135V35.3572H417.767V56.9431H442.385V35.3572H456.017Z" fill="#611243"/>
<path d="M468.326 63.7527C468.326 46.15 480.262 34.4063 497.672 34.4063C515.48 34.4063 527.031 45.9701 527.031 63.7527C527.031 81.5354 515.095 93.112 497.672 93.112C479.877 93.112 468.326 81.561 468.326 63.7527ZM513.013 63.7527C513.013 52.5872 507.141 45.7646 497.672 45.7646C488.203 45.7646 482.344 52.5872 482.344 63.7527C482.344 74.9183 488.216 81.7409 497.672 81.7409C507.128 81.7409 513.013 74.9311 513.013 63.7527Z" fill="#611243"/>
<path d="M588.382 92.1613H574.75V47.6534H554.295V65.8472C554.295 86.1096 549.747 92.5468 537.592 92.5468C535.629 92.5335 533.669 92.4047 531.721 92.1613V79.8523H534.946C539.481 79.8523 540.805 78.1563 540.805 64.3311V35.3572H588.344L588.382 92.1613Z" fill="#611243"/>
<path d="M605.227 15.6601H620.002V27.7764H605.227V15.6601ZM605.792 35.3572H619.437V92.1613H605.792V35.3572Z" fill="#611243"/>
<path d="M684 92.1613H670.368V71.5263H650.671V80.6103C650.671 88.3196 646.135 92.3541 638.362 92.3541C636.343 92.3923 634.323 92.3279 632.311 92.1613V80.2377H634.392C634.775 80.2678 635.16 80.2155 635.521 80.0841C635.882 79.9528 636.21 79.7456 636.484 79.4764C636.758 79.2073 636.971 78.8825 637.109 78.524C637.247 78.1655 637.306 77.7815 637.283 77.3982V65.6416H646.277C640.032 63.3674 634.919 58.2536 634.919 51.4309C634.919 41.5888 642.499 35.3444 654.423 35.3444H683.974L684 92.1613ZM648.846 53.718C648.846 58.6519 652.637 61.6714 659.446 61.6714H670.432V45.9574H658.868C652.187 45.9574 648.846 48.797 648.846 53.718Z" fill="#611243"/>
<path d="M187.703 132.069C187.703 124.36 192.701 119.079 200.102 119.079C207.503 119.079 212.565 124.219 212.565 132.069C212.565 139.92 207.49 145.072 200.102 145.072C192.714 145.072 187.703 139.933 187.703 132.069ZM207.297 132.069C207.297 126.93 204.432 123.538 200.102 123.538C195.772 123.538 192.907 126.878 192.907 132.069C192.907 137.26 195.772 140.601 200.102 140.601C204.432 140.601 207.297 137.273 207.297 132.069Z" fill="#A5307B"/>
<path d="M236.887 134.742C236.887 140.935 233.366 145.021 228.291 145.021C227.072 145.068 225.859 144.834 224.745 144.337C223.631 143.84 222.646 143.094 221.867 142.156V151.355H217.139V124.746H221.404L221.674 127.739C222.426 126.682 223.426 125.825 224.586 125.244C225.747 124.664 227.033 124.378 228.33 124.411C233.495 124.411 236.887 128.472 236.887 134.742ZM232.03 134.742C232.03 130.887 230.026 128.407 226.826 128.407C223.627 128.407 221.687 130.874 221.687 134.742C221.687 138.609 223.614 141.076 226.826 141.076C230.039 141.076 232.03 138.609 232.03 134.742Z" fill="#A5307B"/>
<path d="M256.16 129.204H246.036V144.738H241.23V124.746H256.16V129.204Z" fill="#A5307B"/>
<path d="M277.154 140.601V144.738C276.586 144.835 276.009 144.878 275.432 144.867C272.966 144.867 271.694 143.942 271.359 141.809C270.528 142.858 269.463 143.699 268.25 144.266C267.037 144.832 265.708 145.108 264.37 145.072C260.515 145.072 257.83 142.734 257.83 139.2C257.83 134.138 262.635 133.136 266.426 132.673C268.995 132.339 270.691 132.005 270.691 130.682C270.691 129.358 269.227 128.343 266.837 128.343C265.775 128.343 264.725 128.562 263.753 128.987C262.78 129.411 261.905 130.032 261.184 130.81L258.254 127.804C260.621 125.557 263.78 124.338 267.042 124.412C272.105 124.412 275.111 126.981 275.111 131.08V139.406C275.087 139.568 275.102 139.734 275.154 139.89C275.205 140.046 275.293 140.187 275.409 140.303C275.525 140.419 275.666 140.507 275.822 140.558C275.978 140.61 276.144 140.625 276.306 140.601H277.154ZM270.563 137.003V134.947C269.423 135.453 268.207 135.766 266.965 135.873C264.691 136.271 262.494 136.605 262.494 138.802C262.494 140.344 263.56 141.269 265.359 141.269C268.224 141.269 270.563 139.342 270.563 137.003Z" fill="#A5307B"/>
<path d="M299.562 124.746V144.738H294.756V136.746H286.096V144.738H281.291V124.746H286.096V132.339H294.756V124.746H299.562Z" fill="#A5307B"/>
<path d="M305.434 117.82H310.573V122.073H305.434V117.82ZM305.626 124.746H310.432V144.738H305.626V124.746Z" fill="#A5307B"/>
<path d="M331.824 139.072C331.824 142.605 328.162 145.072 323.023 145.072C318.898 145.072 315.635 143.273 314.17 139.933L317.96 138.005C318.402 138.989 319.126 139.819 320.042 140.389C320.957 140.959 322.022 141.243 323.1 141.205C325.438 141.205 326.954 140.203 326.954 138.635C326.954 137.067 325.669 136.297 323.562 136.297H320.89V132.84H323.459C325.194 132.84 326.337 131.967 326.337 130.566C326.337 129.166 325.13 128.24 323.061 128.24C322.073 128.218 321.1 128.475 320.252 128.982C319.404 129.489 318.716 130.225 318.269 131.106L314.787 128.806C315.674 127.381 316.928 126.221 318.418 125.448C319.908 124.675 321.578 124.317 323.254 124.411C327.854 124.411 330.963 126.75 330.963 130.206C331.003 131.069 330.793 131.924 330.357 132.67C329.922 133.416 329.28 134.019 328.509 134.408C329.485 134.732 330.333 135.359 330.929 136.198C331.525 137.037 331.838 138.043 331.824 139.072Z" fill="#A5307B"/>
<path d="M353.217 140.601V144.738C352.648 144.835 352.072 144.878 351.495 144.867C349.028 144.867 347.756 143.942 347.422 141.809C346.59 142.858 345.526 143.699 344.313 144.266C343.099 144.832 341.771 145.108 340.432 145.072C336.578 145.072 333.893 142.734 333.893 139.2C333.893 134.138 338.698 133.136 342.488 132.673C345.058 132.339 346.754 132.005 346.754 130.682C346.754 129.358 345.289 128.343 342.899 128.343C341.838 128.343 340.788 128.562 339.815 128.987C338.842 129.411 337.968 130.032 337.246 130.81L334.381 127.804C336.748 125.557 339.907 124.338 343.169 124.412C348.231 124.412 351.238 126.981 351.238 131.08V139.406C351.214 139.568 351.229 139.734 351.28 139.89C351.332 140.046 351.419 140.187 351.535 140.303C351.652 140.419 351.793 140.507 351.949 140.558C352.105 140.61 352.27 140.625 352.433 140.601H353.217ZM346.625 137.003V134.947C345.486 135.455 344.27 135.767 343.028 135.873C340.754 136.271 338.557 136.605 338.557 138.802C338.557 140.344 339.623 141.269 341.422 141.269C344.338 141.269 346.625 139.342 346.625 137.003Z" fill="#A5307B"/>
<path d="M378.092 140.408V149.402H373.492V144.738H357.367V124.746H362.16V140.408H370.627V124.746H375.419V140.408H378.092Z" fill="#A5307B"/>
<path d="M382.229 117.82H387.368V122.073H382.229V117.82ZM382.421 124.746H387.227V144.738H382.421V124.746Z" fill="#A5307B"/>
<path d="M409.955 144.738H405.15V137.479H398.224V140.678C398.224 143.402 396.618 144.802 393.895 144.802C393.021 144.802 392.494 144.802 391.762 144.802V140.601H392.494C392.628 140.608 392.761 140.587 392.886 140.54C393.011 140.492 393.125 140.418 393.219 140.324C393.314 140.229 393.387 140.116 393.435 139.991C393.483 139.866 393.504 139.732 393.496 139.599V135.41H396.696C395.592 135.095 394.613 134.445 393.895 133.55C393.177 132.654 392.755 131.558 392.687 130.412C392.687 126.943 395.359 124.746 399.561 124.746H409.955V144.738ZM397.556 131.17C397.556 132.904 398.841 133.971 401.295 133.971H405.15V128.472H401.09C398.751 128.472 397.556 129.474 397.556 131.17Z" fill="#A5307B"/>
<path d="M441.613 139.072C441.613 142.605 437.951 145.072 432.812 145.072C428.687 145.072 425.424 143.273 423.959 139.933L427.749 138.005C428.191 138.989 428.915 139.819 429.831 140.389C430.746 140.959 431.811 141.243 432.889 141.205C435.214 141.205 436.743 140.203 436.743 138.635C436.743 137.067 435.458 136.297 433.338 136.297H430.679V132.84H433.248C434.983 132.84 436.114 131.967 436.114 130.566C436.114 129.166 434.906 128.24 432.837 128.24C431.85 128.219 430.877 128.477 430.029 128.984C429.181 129.491 428.494 130.226 428.045 131.106L424.653 128.767C425.536 127.342 426.788 126.181 428.276 125.407C429.764 124.634 431.433 124.277 433.107 124.373C437.707 124.373 440.816 126.711 440.816 130.168C440.854 131.031 440.641 131.887 440.203 132.633C439.765 133.378 439.122 133.981 438.349 134.369C439.322 134.705 440.163 135.341 440.75 136.187C441.337 137.032 441.639 138.043 441.613 139.072Z" fill="#A5307B"/>
<path d="M463.02 140.601V144.738C462.448 144.835 461.867 144.878 461.286 144.867C458.819 144.867 457.547 143.942 457.213 141.809C456.381 142.858 455.317 143.699 454.104 144.266C452.89 144.832 451.562 145.108 450.223 145.072C446.369 145.072 443.684 142.734 443.684 139.2C443.684 134.138 448.489 133.136 452.279 132.673C454.849 132.339 456.545 132.005 456.545 130.682C456.545 129.358 455.08 128.343 452.69 128.343C451.627 128.341 450.574 128.56 449.599 128.984C448.624 129.409 447.747 130.03 447.024 130.81L444.159 127.804C446.526 125.557 449.685 124.338 452.947 124.412C458.087 124.412 461.016 126.981 461.016 131.08V139.406C460.992 139.568 461.007 139.734 461.059 139.89C461.11 140.046 461.198 140.187 461.314 140.303C461.43 140.419 461.571 140.507 461.727 140.558C461.883 140.61 462.049 140.625 462.211 140.601H463.02ZM456.416 137.003V134.947C455.277 135.455 454.061 135.767 452.819 135.873C450.557 136.271 448.36 136.605 448.36 138.802C448.36 140.344 449.414 141.269 451.213 141.269C454.078 141.269 456.416 139.342 456.416 137.003Z" fill="#A5307B"/>
<path d="M479.684 144.738L474.814 137.8L469.945 144.738H464.355L471.743 134.613L464.69 124.746H470.253L474.917 131.337L479.684 124.746H485.016L477.949 134.613L485.35 144.738H479.684Z" fill="#A5307B"/>
<path d="M507.282 124.746V144.738H502.605V131.543L493.753 144.738H488.947V124.746H493.676V137.941L502.477 124.746H507.282Z" fill="#A5307B"/>
<path d="M511.689 134.742C511.689 128.549 515.814 124.463 521.878 124.463C526.35 124.463 529.883 126.66 530.949 130.463L526.414 131.864C526.138 130.864 525.535 129.985 524.702 129.367C523.868 128.75 522.851 128.43 521.814 128.459C518.615 128.459 516.675 130.926 516.675 134.793C516.675 138.661 518.666 141.128 521.814 141.128C522.859 141.157 523.884 140.839 524.728 140.223C525.572 139.606 526.188 138.727 526.478 137.723L530.949 139.123C529.883 142.978 526.35 145.124 521.878 145.124C515.814 145.072 511.689 140.935 511.689 134.742Z" fill="#A5307B"/>
<path d="M551.005 129.076H544.015V144.738H539.21V129.076H532.156V124.746H551.005V129.076Z" fill="#A5307B"/>
<path d="M573.734 124.746L567.31 144.198C565.499 149.466 563.173 151.741 559.511 151.741C558.678 151.801 557.841 151.682 557.057 151.393C556.274 151.103 555.561 150.649 554.967 150.061C554.373 149.473 553.912 148.765 553.614 147.985C553.317 147.204 553.189 146.369 553.241 145.535C553.229 143.69 553.95 141.915 555.245 140.601H558.034L551.943 124.746H557.083L562.608 140.601H563.892L568.608 124.746H573.734ZM562.274 145.136L562.608 144.134H557.751C557.486 144.605 557.349 145.136 557.353 145.676C557.338 145.96 557.383 146.244 557.485 146.509C557.587 146.775 557.743 147.016 557.944 147.217C558.146 147.418 558.387 147.575 558.652 147.677C558.918 147.779 559.201 147.824 559.485 147.809C560.809 147.873 561.682 146.871 562.274 145.136Z" fill="#A5307B"/>
<path d="M608.476 140.408V149.402H603.877V144.738H590.476V149.402H585.889V140.408H588.291C588.679 137.983 588.834 135.526 588.754 133.072V124.746H605.804V140.408H608.476ZM601.076 140.537V128.973H593.366V133.303C593.41 135.731 593.256 138.159 592.904 140.562L601.076 140.537Z" fill="#A5307B"/>
<path d="M612.613 117.82H617.753V122.073H612.613V117.82ZM612.87 124.746H617.676V144.738H612.87V124.746Z" fill="#A5307B"/>
<path d="M640.405 129.076H633.429V144.738H628.623V129.076H621.557V124.746H640.418L640.405 129.076Z" fill="#A5307B"/>
<path d="M651.942 141.076C653.006 141.12 654.066 140.927 655.045 140.511C656.025 140.096 656.901 139.468 657.609 138.674L660.602 141.539C659.501 142.72 658.156 143.648 656.661 144.258C655.166 144.869 653.556 145.146 651.942 145.072C645.068 145.072 641.535 140.678 641.535 134.793C641.535 128.909 645.544 124.514 651.608 124.514C657.673 124.514 661.399 128.574 661.399 134.793C661.41 135.306 661.367 135.818 661.27 136.322H646.34C646.471 137.688 647.13 138.949 648.176 139.837C649.222 140.725 650.573 141.17 651.942 141.076ZM646.405 132.737H656.555C656.015 129.872 654.217 128.279 651.621 128.279C650.348 128.222 649.102 128.651 648.133 129.479C647.165 130.307 646.547 131.471 646.405 132.737Z" fill="#A5307B"/>
<path d="M684 124.746V144.738H679.336V131.543L670.47 144.738H665.678V124.746H670.406V137.941L679.207 124.746H684ZM668.402 118.013L672.076 117.486C672.194 118.141 672.539 118.734 673.05 119.161C673.56 119.588 674.205 119.822 674.871 119.822C675.537 119.822 676.181 119.588 676.692 119.161C677.203 118.734 677.547 118.141 677.665 117.486L681.34 118.013C680.942 121.007 678.603 122.882 674.916 122.882C671.228 122.882 668.813 121.007 668.402 118.013Z" fill="#A5307B"/>
<path d="M140.305 92.1614H159.578C159.581 80.4143 157.271 68.7816 152.779 57.9274C148.286 47.0732 141.7 37.2101 133.396 28.9013C125.092 20.5924 115.233 14.0006 104.382 9.50203C93.5306 5.00349 81.8994 2.68639 70.1525 2.68301V21.9561C52.8361 21.9384 36.1294 28.3484 23.2685 39.9443L42.1558 68.5583L10.7413 54.9772C3.72576 66.1109 0.00202147 79.0017 0 92.1614C0.00121395 95.831 0.284716 99.4952 0.847998 103.121H0.937937L35.0891 102.903L6.6041 121.842C13.7558 137.163 26.2039 149.384 41.6547 156.251L60.1179 127.431L60.4648 161.609C63.6759 162.042 66.9123 162.261 70.1525 162.264C83.7449 162.286 97.0478 158.338 108.428 150.906L94.2948 119.722L123.178 138.095C134.251 125.358 140.336 109.04 140.305 92.1614ZM140.305 92.1614H123.602C123.602 85.1463 122.22 78.1999 119.533 71.7194C116.847 65.2389 112.91 59.3514 107.948 54.3933C102.985 49.4353 97.0938 45.5039 90.6109 42.8241C84.1279 40.1442 77.1804 38.7683 70.1654 38.775C70.1654 29.1256 70.1654 22.0717 70.1654 22.0717C88.7542 22.0785 106.58 29.4643 119.727 42.6065C132.874 55.7486 140.266 73.5722 140.279 92.1614H140.305ZM70.1654 65.6417V50.9299C81.0982 50.9333 91.5821 55.2788 99.3116 63.0109C107.041 70.7429 111.383 81.2283 111.383 92.1614H96.6203C96.6254 88.6827 95.9451 85.2372 94.6182 82.0216C93.2913 78.8059 91.3438 75.8833 88.8871 73.4205C86.4303 70.9578 83.5124 69.0032 80.3001 67.6685C77.0878 66.3338 73.644 65.645 70.1654 65.6417Z" fill="#A5307B"/>
<path d="M96.6325 92.1613C96.6198 97.3904 95.0578 102.498 92.1437 106.84C89.2297 111.182 85.0943 114.563 80.26 116.556C75.4256 118.549 70.1091 119.064 64.9819 118.037C59.8547 117.01 55.1469 114.487 51.453 110.786C47.7591 107.085 45.2449 102.372 44.2279 97.2426C43.2108 92.1133 43.7367 86.7977 45.7389 81.9671C47.7411 77.1365 51.1299 73.0077 55.4773 70.102C59.8247 67.1963 64.9357 65.6442 70.1647 65.6416V92.1099L96.6325 92.1613Z" fill="#611243"/>
</svg>
