<svg width="339" height="80" viewBox="0 0 339 80" fill="none" xmlns="http://www.w3.org/2000/svg">
<g clip-path="url(#clip0_1_9187)">
<path d="M134.42 44.349H127.358V17.7886L117.526 44.349H110.018L100.065 17.5084V44.349H93.0605V8.68889H103.797L113.743 35.7141L123.786 8.68889H134.394L134.42 44.349Z" fill="#F0D9EA"/>
<path d="M168.48 38.5291V44.3493C167.676 44.4937 166.859 44.5577 166.042 44.5403C162.571 44.5403 160.788 43.2222 160.31 40.2229C158.247 43.0375 154.579 44.8205 150.453 44.8205C145.015 44.8205 141.258 41.5347 141.258 36.5423C141.258 29.4103 148.014 28.003 153.357 27.3471C157.018 26.8759 159.368 26.4046 159.368 24.5261C159.368 22.6476 157.298 21.2467 153.924 21.2467C152.427 21.2486 150.947 21.5576 149.574 22.1545C148.202 22.7515 146.966 23.6237 145.945 24.7172L141.907 20.4953C145.245 17.3274 149.699 15.6063 154.299 15.7066C161.431 15.7066 165.653 19.2726 165.653 25.0929V36.8416C165.62 37.0709 165.641 37.3047 165.714 37.5245C165.787 37.7443 165.911 37.9441 166.074 38.1079C166.238 38.2717 166.438 38.395 166.658 38.4682C166.877 38.5413 167.111 38.5621 167.341 38.5291H168.48ZM159.19 33.4348V30.5692C158.063 31.206 156.471 31.5053 154.095 31.881C150.912 32.4414 147.81 32.9126 147.81 36.0138C147.81 38.1661 149.313 39.4842 151.848 39.4842C155.904 39.4842 159.196 36.7461 159.196 33.4666L159.19 33.4348Z" fill="#F0D9EA"/>
<path d="M195.321 22.4821H181.057V44.3494H174.301V16.1971H195.315L195.321 22.4821Z" fill="#F0D9EA"/>
<path d="M226.008 16.1971V44.3494H219.252V33.1165H207.051V44.3494H200.295V16.1971H207.051V26.8951H219.252V16.1971H226.008Z" fill="#F0D9EA"/>
<path d="M232.109 30.269C232.109 21.545 238.025 15.7248 246.654 15.7248C255.479 15.7248 261.204 21.4559 261.204 30.269C261.204 39.0822 255.288 44.8196 246.654 44.8196C237.834 44.8196 232.109 39.0949 232.109 30.269ZM254.257 30.269C254.257 24.7353 251.347 21.354 246.654 21.354C241.96 21.354 239.057 24.7353 239.057 30.269C239.057 35.8027 241.967 39.184 246.654 39.184C251.34 39.184 254.257 35.8091 254.257 30.269Z" fill="#F0D9EA"/>
<path d="M291.61 44.3494H284.853V22.2911H274.716V31.308C274.716 41.3501 272.461 44.5404 266.437 44.5404C265.465 44.5338 264.493 44.47 263.527 44.3494V38.249H265.126C267.374 38.249 268.029 37.4084 268.029 30.5566V16.1971H291.591L291.61 44.3494Z" fill="#F0D9EA"/>
<path d="M299.959 6.43294H307.282V12.4378H299.959V6.43294ZM300.239 16.1949H307.002V44.3472H300.239V16.1949Z" fill="#F0D9EA"/>
<path d="M339.001 44.3494H332.244V34.1226H322.483V38.6247C322.483 42.4454 320.235 44.4449 316.382 44.4449C315.381 44.4639 314.38 44.432 313.383 44.3494V38.44H314.414C314.604 38.4549 314.795 38.429 314.974 38.3639C315.153 38.2988 315.316 38.1961 315.451 38.0627C315.587 37.9293 315.693 37.7684 315.761 37.5907C315.829 37.413 315.859 37.2227 315.847 37.0327V31.2061H320.305C317.21 30.079 314.675 27.5446 314.675 24.1632C314.675 19.2855 318.433 16.1907 324.342 16.1907H338.988L339.001 44.3494ZM321.578 25.2967C321.578 27.742 323.457 29.2384 326.832 29.2384H332.276V21.4505H326.545C323.234 21.4505 321.578 22.8578 321.578 25.2967Z" fill="#F0D9EA"/>
<path d="M93.0273 64.1261C93.0273 60.3054 95.5045 57.6882 99.1723 57.6882C102.84 57.6882 105.349 60.2353 105.349 64.1261C105.349 68.0169 102.834 70.5704 99.1723 70.5704C95.5108 70.5704 93.0273 68.0232 93.0273 64.1261ZM102.738 64.1261C102.738 61.5789 101.318 59.8978 99.1723 59.8978C97.0264 59.8978 95.6063 61.5535 95.6063 64.1261C95.6063 66.6987 97.0264 68.3544 99.1723 68.3544C101.318 68.3544 102.738 66.7051 102.738 64.1261Z" fill="#611243"/>
<path d="M117.405 65.4513C117.405 68.5206 115.66 70.5456 113.144 70.5456C112.54 70.5689 111.939 70.4529 111.387 70.2067C110.835 69.9605 110.347 69.5906 109.961 69.1256V73.685H107.617V60.4971H109.731L109.865 61.9808C110.238 61.4566 110.733 61.032 111.308 60.7444C111.884 60.4568 112.521 60.315 113.164 60.3315C115.723 60.3315 117.405 62.3438 117.405 65.4513ZM114.998 65.4513C114.998 63.5409 114.004 62.3119 112.419 62.3119C110.833 62.3119 109.871 63.5346 109.871 65.4513C109.871 67.368 110.827 68.5907 112.419 68.5907C114.011 68.5907 114.998 67.368 114.998 65.4513Z" fill="#611243"/>
<path d="M126.956 62.7058H121.938V70.4046H119.557V60.4962H126.956V62.7058Z" fill="#611243"/>
<path d="M137.36 68.3553V70.4058C137.079 70.4538 136.793 70.4752 136.507 70.4695C135.285 70.4695 134.654 70.011 134.489 68.9539C134.076 69.474 133.549 69.8909 132.947 70.1717C132.346 70.4524 131.688 70.5893 131.024 70.5713C129.114 70.5713 127.783 69.4124 127.783 67.6612C127.783 65.1523 130.165 64.6556 132.043 64.4263C133.317 64.2608 134.157 64.0952 134.157 63.4393C134.157 62.7834 133.432 62.2804 132.247 62.2804C131.721 62.2803 131.201 62.3889 130.719 62.5992C130.236 62.8096 129.803 63.1173 129.445 63.503L127.993 62.0129C129.166 60.8996 130.732 60.2952 132.349 60.3318C134.858 60.3318 136.348 61.6054 136.348 63.6367V67.7631C136.336 67.8436 136.343 67.9257 136.369 68.003C136.395 68.0802 136.438 68.1503 136.495 68.2079C136.553 68.2654 136.623 68.3087 136.7 68.3343C136.778 68.3599 136.86 68.3671 136.94 68.3553H137.36ZM134.094 66.5723V65.5535C133.529 65.804 132.926 65.9589 132.311 66.0119C131.184 66.2093 130.095 66.3749 130.095 67.4638C130.095 68.228 130.623 68.6864 131.515 68.6864C132.935 68.6864 134.094 67.7313 134.094 66.5723Z" fill="#611243"/>
<path d="M148.467 60.4962V70.4046H146.086V66.4437H141.794V70.4046H139.412V60.4962H141.794V64.2596H146.086V60.4962H148.467Z" fill="#611243"/>
<path d="M151.377 57.0659H153.924V59.1737H151.377V57.0659ZM151.472 60.4982H153.854V70.4066H151.472V60.4982Z" fill="#611243"/>
<path d="M164.456 67.597C164.456 69.3481 162.642 70.5708 160.094 70.5708C158.05 70.5708 156.433 69.6793 155.707 68.0236L157.586 67.0684C157.804 67.5561 158.164 67.9674 158.617 68.2498C159.071 68.5323 159.599 68.673 160.133 68.654C161.292 68.654 162.043 68.1573 162.043 67.3805C162.043 66.6036 161.406 66.2215 160.362 66.2215H159.037V64.5086H160.311C161.171 64.5086 161.737 64.0755 161.737 63.3814C161.737 62.6873 161.139 62.2289 160.114 62.2289C159.624 62.2177 159.141 62.3451 158.721 62.5963C158.301 62.8476 157.96 63.2124 157.738 63.6489L156.013 62.509C156.452 61.8029 157.074 61.2281 157.812 60.845C158.551 60.4618 159.379 60.2843 160.209 60.3312C162.489 60.3312 164.03 61.4902 164.03 63.2031C164.05 63.6306 163.946 64.0547 163.73 64.4242C163.514 64.7937 163.196 65.0928 162.814 65.2854C163.297 65.4463 163.717 65.7571 164.013 66.1727C164.308 66.5883 164.464 67.0871 164.456 67.597Z" fill="#611243"/>
<path d="M175.06 68.3553V70.4058C174.778 70.4538 174.492 70.4752 174.206 70.4695C172.984 70.4695 172.353 70.011 172.188 68.9539C171.776 69.474 171.248 69.8909 170.647 70.1717C170.045 70.4524 169.387 70.5893 168.724 70.5713C166.813 70.5713 165.482 69.4124 165.482 67.6612C165.482 65.1523 167.864 64.6556 169.743 64.4263C171.016 64.2608 171.857 64.0952 171.857 63.4393C171.857 62.7834 171.131 62.2804 169.946 62.2804C169.42 62.2803 168.9 62.3889 168.418 62.5992C167.936 62.8096 167.502 63.1173 167.144 63.503L165.724 62.0129C166.897 60.8996 168.463 60.2952 170.08 60.3318C172.589 60.3318 174.079 61.6054 174.079 63.6367V67.7631C174.067 67.8436 174.074 67.9257 174.1 68.003C174.126 68.0802 174.169 68.1503 174.226 68.2079C174.284 68.2654 174.354 68.3087 174.431 68.3343C174.509 68.3599 174.591 68.3671 174.671 68.3553H175.06ZM171.793 66.5723V65.5535C171.228 65.8048 170.626 65.9597 170.01 66.0119C168.883 66.2093 167.794 66.3749 167.794 67.4638C167.794 68.228 168.323 68.6864 169.214 68.6864C170.66 68.6864 171.793 67.7313 171.793 66.5723Z" fill="#611243"/>
<path d="M187.387 68.2586V72.7161H185.107V70.4046H177.115V60.4962H179.49V68.2586H183.687V60.4962H186.062V68.2586H187.387Z" fill="#611243"/>
<path d="M189.438 57.0659H191.985V59.1737H189.438V57.0659ZM189.533 60.4982H191.915V70.4066H189.533V60.4982Z" fill="#611243"/>
<path d="M203.179 70.4046H200.797V66.8067H197.365V68.3923C197.365 69.7423 196.569 70.4364 195.219 70.4364C194.786 70.4364 194.525 70.4364 194.162 70.4364V68.3541H194.525C194.591 68.3578 194.658 68.3475 194.719 68.3238C194.781 68.3002 194.838 68.2637 194.884 68.2168C194.931 68.1699 194.968 68.1137 194.991 68.0518C195.015 67.9898 195.025 67.9236 195.022 67.8574V65.7815H196.607C196.06 65.6254 195.575 65.3032 195.219 64.8594C194.863 64.4157 194.654 63.8723 194.621 63.3044C194.621 61.5851 195.945 60.4962 198.027 60.4962H203.179V70.4046ZM197.034 63.6801C197.034 64.5398 197.671 65.0683 198.887 65.0683H200.797V62.3428H198.785C197.626 62.3428 197.034 62.8395 197.034 63.6801Z" fill="#611243"/>
<path d="M218.871 67.5972C218.871 69.3483 217.056 70.571 214.509 70.571C212.464 70.571 210.847 69.6795 210.121 68.0238L212 67.0687C212.218 67.5563 212.578 67.9676 213.031 68.25C213.485 68.5325 214.013 68.6732 214.547 68.6542C215.699 68.6542 216.457 68.1576 216.457 67.3807C216.457 66.6038 215.82 66.2217 214.77 66.2217H213.451V64.5088H214.725C215.585 64.5088 216.145 64.0758 216.145 63.3817C216.145 62.6876 215.547 62.2291 214.521 62.2291C214.032 62.2187 213.55 62.3464 213.129 62.5975C212.709 62.8487 212.369 63.2131 212.146 63.6491L210.465 62.4901C210.903 61.7836 211.523 61.2083 212.26 60.825C212.998 60.4417 213.825 60.2646 214.655 60.3123C216.935 60.3123 218.476 61.4713 218.476 63.1843C218.494 63.6123 218.389 64.0365 218.172 64.4059C217.955 64.7754 217.636 65.0742 217.253 65.2665C217.735 65.4328 218.152 65.7483 218.443 66.1674C218.734 66.5865 218.884 67.0873 218.871 67.5972Z" fill="#611243"/>
<path d="M229.478 68.3553V70.4058C229.194 70.4538 228.906 70.4751 228.619 70.4695C227.396 70.4695 226.765 70.011 226.6 68.9539C226.188 69.474 225.66 69.8909 225.059 70.1717C224.458 70.4524 223.799 70.5893 223.136 70.5713C221.225 70.5713 219.895 69.4124 219.895 67.6612C219.895 65.1523 222.276 64.6556 224.155 64.4263C225.428 64.2608 226.269 64.0952 226.269 63.4393C226.269 62.7834 225.543 62.2804 224.358 62.2804C223.831 62.2794 223.31 62.3876 222.826 62.598C222.343 62.8084 221.909 63.1165 221.55 63.503L220.13 62.0129C221.303 60.8996 222.869 60.2952 224.486 60.3318C227.033 60.3318 228.485 61.6054 228.485 63.6367V67.7631C228.473 67.8436 228.48 67.9257 228.506 68.003C228.531 68.0802 228.575 68.1503 228.632 68.2079C228.69 68.2654 228.76 68.3087 228.837 68.3343C228.914 68.3599 228.996 68.3671 229.077 68.3553H229.478ZM226.205 66.5723V65.5535C225.641 65.8048 225.038 65.9597 224.422 66.0119C223.301 66.2093 222.212 66.3749 222.212 67.4638C222.212 68.228 222.735 68.6864 223.626 68.6864C225.046 68.6864 226.205 67.7313 226.205 66.5723Z" fill="#611243"/>
<path d="M237.737 70.4046L235.324 66.9659L232.911 70.4046H230.141L233.802 65.3867L230.306 60.4962H233.063L235.375 63.7629L237.737 60.4962H240.38L236.878 65.3867L240.546 70.4046H237.737Z" fill="#611243"/>
<path d="M251.417 60.4962V70.4046H249.099V63.8648L244.712 70.4046H242.33V60.4962H244.673V67.036L249.035 60.4962H251.417Z" fill="#611243"/>
<path d="M253.6 65.4501C253.6 62.3807 255.644 60.3558 258.649 60.3558C260.865 60.3558 262.617 61.4447 263.145 63.3296L260.897 64.0237C260.761 63.5279 260.462 63.0923 260.049 62.7864C259.635 62.4805 259.131 62.322 258.617 62.3362C257.032 62.3362 256.07 63.5588 256.07 65.4755C256.07 67.3923 257.057 68.6149 258.617 68.6149C259.135 68.6296 259.643 68.4718 260.062 68.1664C260.48 67.8609 260.785 67.4251 260.929 66.9274L263.145 67.6215C262.617 69.5319 260.865 70.5953 258.649 70.5953C255.644 70.5698 253.6 68.5194 253.6 65.4501Z" fill="#611243"/>
<path d="M273.086 62.6421H269.622V70.4046H267.24V62.6421H263.744V60.4962H273.086V62.6421Z" fill="#611243"/>
<path d="M284.351 60.4962L281.167 70.1371C280.269 72.7479 279.116 73.8751 277.301 73.8751C276.888 73.9049 276.474 73.8461 276.085 73.7025C275.697 73.5589 275.344 73.334 275.049 73.0427C274.755 72.7514 274.527 72.4005 274.379 72.0136C274.231 71.6267 274.168 71.2127 274.194 70.7994C274.188 69.8849 274.545 69.0054 275.187 68.3541H276.569L273.551 60.4962H276.098L278.836 68.3541H279.473L281.81 60.4962H284.351ZM278.671 70.602L278.836 70.1053H276.429C276.298 70.3384 276.23 70.6018 276.232 70.8694C276.224 71.0102 276.247 71.1509 276.297 71.2824C276.348 71.414 276.425 71.5335 276.525 71.6332C276.625 71.7328 276.744 71.8104 276.876 71.861C277.007 71.9115 277.148 71.9338 277.289 71.9265C277.945 71.9583 278.378 71.4616 278.671 70.602Z" fill="#611243"/>
<path d="M301.57 68.2586V72.7161H299.29V70.4046H292.648V72.7161H290.375V68.2586H291.566C291.758 67.0566 291.835 65.8391 291.795 64.6225V60.4962H300.245V68.2586H301.57ZM297.902 68.3223V62.5912H294.081V64.7372C294.103 65.9407 294.026 67.144 293.852 68.335L297.902 68.3223Z" fill="#611243"/>
<path d="M303.621 57.0659H306.168V59.1737H303.621V57.0659ZM303.748 60.4982H306.13V70.4066H303.748V60.4982Z" fill="#611243"/>
<path d="M317.394 62.6421H313.937V70.4046H311.555V62.6421H308.053V60.4962H317.401L317.394 62.6421Z" fill="#611243"/>
<path d="M323.113 68.5927C323.64 68.6142 324.165 68.5186 324.651 68.3127C325.137 68.1068 325.57 67.7957 325.921 67.4019L327.405 68.8219C326.859 69.4075 326.193 69.8674 325.452 70.1697C324.711 70.4721 323.913 70.6097 323.113 70.5731C319.706 70.5731 317.955 68.3953 317.955 65.4788C317.955 62.5623 319.942 60.3845 322.947 60.3845C325.953 60.3845 327.8 62.3967 327.8 65.4788C327.805 65.7329 327.784 65.9869 327.736 66.2366H320.337C320.401 66.9135 320.728 67.5385 321.246 67.9785C321.765 68.4185 322.435 68.6389 323.113 68.5927ZM320.369 64.4599H325.399C325.132 63.0399 324.24 62.2503 322.954 62.2503C322.323 62.2221 321.705 62.4347 321.225 62.8449C320.745 63.2551 320.439 63.8324 320.369 64.4599Z" fill="#611243"/>
<path d="M339.001 60.4979V70.4063H336.689V63.8665L332.295 70.4063H329.92V60.4979H332.263V67.0377L336.625 60.4979H339.001ZM331.27 57.1611L333.091 56.9C333.15 57.2248 333.32 57.5186 333.574 57.7303C333.827 57.9419 334.146 58.0579 334.476 58.0579C334.806 58.0579 335.126 57.9419 335.379 57.7303C335.632 57.5186 335.803 57.2248 335.861 56.9L337.682 57.1611C337.485 58.6448 336.326 59.5745 334.498 59.5745C332.671 59.5745 331.474 58.6448 331.27 57.1611Z" fill="#611243"/>
<path d="M69.5372 44.3492H79.089C79.0906 38.5272 77.9456 32.762 75.7192 27.3826C73.4928 22.0033 70.2286 17.1151 66.1131 12.9972C61.9976 8.87928 57.1113 5.61232 51.7332 3.38283C46.3551 1.15333 40.5905 0.00496814 34.7686 0.0032959V9.5551C26.1863 9.54637 17.9062 12.7232 11.5322 18.4701L20.893 32.6514L5.32354 25.9205C1.84654 31.4384 0.00100187 37.8272 0 44.3492C0.000601648 46.1679 0.141109 47.9838 0.42028 49.7809H0.464855L17.3907 49.6727L3.27309 59.0589C6.81755 66.6523 12.987 72.7087 20.6446 76.1121L29.7953 61.829L29.9672 78.7675C31.5587 78.9822 33.1627 79.0907 34.7686 79.0923C41.5051 79.1031 48.0982 77.1467 53.7385 73.4631L46.7338 58.0082L61.0488 67.1143C66.5369 60.8013 69.5523 52.7141 69.5372 44.3492ZM69.5372 44.3492H61.2589C61.2589 40.8724 60.5737 37.4298 59.2425 34.218C57.9112 31.0063 55.96 28.0884 53.5004 25.6312C51.0408 23.1739 48.121 21.2255 44.908 19.8974C41.695 18.5692 38.2517 17.8873 34.7749 17.8906C34.7749 13.1084 34.7749 9.61241 34.7749 9.61241C43.9878 9.61579 52.8226 13.2762 59.3383 19.7895C65.854 26.3028 69.5177 35.1363 69.5244 44.3492H69.5372ZM34.7749 31.2059V23.9147C40.1934 23.9163 45.3894 26.07 49.2202 29.902C53.051 33.7341 55.2031 38.9307 55.2031 44.3492H47.8864C47.8889 42.6251 47.5517 40.9175 46.8941 39.3238C46.2364 37.7301 45.2713 36.2817 44.0537 35.0611C42.8361 33.8406 41.3899 32.8719 39.7979 32.2104C38.2058 31.5489 36.499 31.2075 34.7749 31.2059Z" fill="#611243"/>
<path d="M47.8928 44.3471C47.8865 46.9386 47.1123 49.4702 45.6681 51.6221C44.2238 53.7739 42.1743 55.4495 39.7783 56.4371C37.3823 57.4248 34.7474 57.6803 32.2063 57.1713C29.6652 56.6623 27.3319 55.4117 25.5012 53.5774C23.6705 51.7431 22.4244 49.4075 21.9203 46.8654C21.4163 44.3233 21.6769 41.6889 22.6692 39.2948C23.6615 36.9007 25.3411 34.8544 27.4957 33.4144C29.6503 31.9743 32.1834 31.2051 34.775 31.2038V44.3216L47.8928 44.3471Z" fill="#F0D9EA"/>
</g>
<defs>
<clipPath id="clip0_1_9187">
<rect width="339" height="79.1144" fill="white"/>
</clipPath>
</defs>
</svg>
